<svg id="Layer_1" data-name="Layer 1" xmlns="http://www.w3.org/2000/svg" viewBox="0 0 720 245.33"><defs><style>.cls-1{fill:#c8102e;}.cls-2{fill:#fff;}</style></defs><title>MapR_new_red</title><rect class="cls-1" x="-0.38" y="-0.17" width="720.82" height="246.11"/><path class="cls-2" d="M665.93,182.95v-.09a2.18,2.18,0,0,0,1.74-2,2.39,2.39,0,0,0-.82-1.85,5.33,5.33,0,0,0-2.93-.62,17.41,17.41,0,0,0-3.2.26v8.39h1.94v-3.37h.92c1.09,0,1.59.41,1.74,1.33a7.44,7.44,0,0,0,.67,2h2.1a7.2,7.2,0,0,1-.62-2.09A2.47,2.47,0,0,0,665.93,182.95Zm-2.32-.61h-.92v-2.4a4.4,4.4,0,0,1,1.09-.12c1.21,0,1.79.52,1.79,1.28S664.7,182.34,663.61,182.34Z"/><path class="cls-2" d="M664,174.31a8.44,8.44,0,1,0,8.6,8.39A8.48,8.48,0,0,0,664,174.31Zm0,15.09a6.71,6.71,0,1,1,6.41-6.65A6.43,6.43,0,0,1,664,189.4Z"/><path class="cls-2" d="M461.77,54.85h-42.3c-17.07,0-20.93,5.32-20.93,19.65l0,98.06L347.67,69.9C341.6,58.62,335.78,53,326.83,53.1c-9.65.12-15.24,5.75-20,16.8L256.17,172.18,230,69.9c-3-11.84-10.92-16.8-20-16.8s-16,4.68-20.16,16.8L158.15,172.67,127,69.9c-3.86-12.12-11-16.8-20.13-16.8S90,58.06,87,69.9L55.72,192.06l20.84,0,30.35-119,31.66,104.33c3.3,10.74,11.62,15.7,19.62,15.42,8,.28,16.21-4.68,19.8-15.42L210,72.74l26.17,101.91c3,12.67,10.49,18.19,19.83,18.19,8.83,0,15.17-6.67,19.78-15.42L326.95,74l23.72,47.44-34.73,0-10,19.89h54.47l18.2,36.12c5.92,10.75,9.78,15.42,20.54,15.42,11,0,19.88-4.33,19.88-28.39l.08-89.5h44c24.24,0,28.75,12.5,28.75,22.43s-5,23.81-29.21,23.92H430V141l31.24.06c38.29,0,52.62-18.07,52.62-43.7S499.25,54.85,461.77,54.85Z"/><path class="cls-2" d="M641.92,97.66c0-25.64-14.59-42.74-52.37-42.74H529.73c-14.06,0-14.06,20.09,0,20.09h60.95c24.25,0,29.21,12.72,29.21,22.65s-5,22.87-29.21,22.87l-65.59.23.23,71.16h20.35l-.17-51.54h41.33l36.09,51.29h24.57L610,138.35C631,133.94,641.92,117.52,641.92,97.66Z"/></svg>