<svg xmlns="http://www.w3.org/2000/svg" height="40" viewBox="0 -960 960 960" width="40"><path d="M480-647.846ZM647.846-480Zm-335.538 0ZM480-312.308Zm0-287.846-77.077-77.743V-840h154.821v162.103L480-600.154Zm197.897 197.231L600.154-480l77.743-77.744H840v154.821H677.897Zm-557.897 0v-154.821h162.103L359.846-480l-77.743 77.077H120ZM402.923-120v-162.103L480-359.846l77.744 77.743V-120H402.923ZM480-647.846l43.898-43.898v-114.41h-87.129v114.41L480-647.846ZM153.846-436.769h115.077L312.308-480l-43.385-43.898H153.846v87.129Zm282.923 282.923h87.129v-115.077L480-312.308l-43.231 43.385v115.077Zm254.975-282.923h114.41v-87.129h-114.41L647.846-480l43.898 43.231Z"/></svg>