<svg xmlns="http://www.w3.org/2000/svg" height="48" viewBox="0 -960 960 960" width="48"><path d="M293.384-63q-27.782 0-48.083-20.3Q225-103.603 225-131.385v-697.232q0-27.782 20.301-48.083T293.384-897h373.232q27.782 0 48.083 20.301T735-828.616v697.232q0 27.782-20.301 48.083T666.616-63H293.384Zm-24.615-94.154v25.77q0 9.23 7.692 16.923 7.693 7.692 16.923 7.692h373.232q9.23 0 16.923-7.692 7.692-7.693 7.692-16.923v-25.77H268.769Zm0-43.769h422.462v-558.154H268.769v558.154Zm0-601.923h422.462v-25.77q0-9.23-7.692-16.923-7.693-7.692-16.923-7.692H293.384q-9.23 0-16.923 7.692-7.692 7.693-7.692 16.923v25.77Zm0 0v-50.385 50.385Zm0 645.692v50.385-50.385Z"/></svg>