<svg xmlns="http://www.w3.org/2000/svg" height="40" viewBox="0 -960 960 960" width="40"><path d="M645.334-617.641v-123.898H314.666v123.898H280.82v-157.744h398.36v157.744h-33.846Zm-468.411 33.846H783.077 176.923Zm533.436 98.205q15.462 0 26.321-10.868 10.859-10.868 10.859-26.064t-10.866-26.055q-10.865-10.859-26.057-10.859-15.718 0-26.321 10.868-10.602 10.868-10.602 26.064t10.602 26.055q10.603 10.859 26.064 10.859Zm-65.025 291.744v-191.59H314.666v191.59h330.668ZM679.18-160H280.82v-165.026H143.077v-217.333q0-31.572 21.871-53.427 21.872-21.855 53.923-21.855h522.257q32.213 0 54.004 21.855 21.791 21.855 21.791 53.427v217.333H679.18V-160Zm103.897-198.872v-183.63q0-17.319-12.06-29.306-12.06-11.987-29.889-11.987H218.871q-17.828 0-29.888 12.137-12.06 12.137-12.06 29.299v183.487H280.82v-60.41h398.36v60.41h103.897Z"/></svg>