<svg xmlns="http://www.w3.org/2000/svg" height="40" viewBox="0 -960 960 960" width="40"><path d="M470.769-160v-33.846h270.77q10 0 17.307-6.154 7.308-6.154 7.308-16.153v-281.693q0-114.485-84.429-191.294-84.43-76.809-201.671-76.809-117.241 0-201.725 76.809-84.483 76.809-84.483 191.294v227.077H180q-24.539 0-42.269-16.577Q120-303.923 120-328.461v-75.385q0-17.923 11.654-31.808 11.653-13.885 28.346-22.577l.692-49.154q1.846-62.615 28.346-116 26.5-53.384 69.77-92.923 43.269-39.538 100.538-61.615Q416.615-800 480-800t120.539 22.077q57.153 22.077 100.538 61.5t69.769 92.807q26.385 53.385 28.462 116.001l.692 48.153q15.923 7.462 27.962 20.077Q840-426.769 840-409.077v86.616q0 17.692-12.038 30.307-12.039 12.616-27.962 20.077v55.924q0 23.538-17.275 39.846Q765.449-160 741.539-160h-270.77Zm-95.51-261.538q-11.131 0-19.349-7.575t-8.218-18.705q0-11.131 8.344-18.964 8.344-7.833 19.474-7.833 11.131 0 19.349 7.959t8.218 19.09q0 11.13-8.344 18.579t-19.474 7.449Zm209.231 0q-11.131 0-19.349-7.575t-8.218-18.705q0-11.131 8.344-18.964 8.344-7.833 19.474-7.833 11.131 0 19.349 7.959t8.218 19.09q0 11.13-8.344 18.579t-19.474 7.449ZM268.692-482q-5.461-89.846 57.846-153.154 63.308-63.308 155.675-63.308 76.428 0 135.184 46.911 58.757 46.91 71.988 121.782-78.641-1-145.705-40.949-67.065-39.949-103.339-109.59-14.418 69.231-60.149 121.346-45.731 52.116-111.5 76.962Z"/></svg>