<svg xmlns="http://www.w3.org/2000/svg" height="40" viewBox="0 -960 960 960" width="40"><path d="M497.128-503.077v-340q0-7.372 4.91-12.148Q506.947-860 514.204-860q7.258 0 12.014 4.865 4.756 4.865 4.756 12.058v340h-33.846Zm-149.026 0v-300q0-7.372 4.91-12.148Q357.921-820 365.178-820q7.258 0 12.014 4.865 4.757 4.865 4.757 12.058v300h-33.847ZM498.913-80Q374.201-80 287.1-166.789 200-253.578 200-378.051v-365.026q0-7.192 4.909-12.058Q209.818-760 217.076-760q7.257 0 12.014 4.865 4.756 4.866 4.756 12.058v365.026q0 110.349 76.875 187.277 76.876 76.928 187.861 76.928 110.556 0 187.936-77.038 77.38-77.039 79.636-187.988v-164.205h-23.077q-26.5 0-44.788 18.289Q680-506.5 680-480v113.846h-73.846q-43.513 0-73.295 29.782-29.782 29.782-29.782 73.295v16.923h-33.846v-16.923q0-57.333 39.795-97.128T606.154-400h40v-363.077q0-7.193 4.909-12.058Q655.973-780 663.23-780t12.014 4.865Q680-770.27 680-763.077v209.821q12.462-11.154 28.616-17.411 16.153-6.256 34.461-6.256H800v198.051q-2.256 125.141-89.53 212.006Q623.196-80 498.913-80Zm18.01-265.641Z"/></svg>