<svg xmlns="http://www.w3.org/2000/svg" height="40" viewBox="0 -960 960 960" width="40"><path d="M468.077-156.154q8.513 0 17.385-3.615 8.871-3.615 14.256-9.513l314.769-314.923q15.231-15.231 23.834-31.598 8.602-16.368 8.602-35.812 0-19.744-8.602-38.347-8.603-18.602-23.834-33.756L661.41-776.795q-15.154-15.231-31.448-22.68-16.295-7.448-36.039-7.448-19.444 0-36.197 7.448-16.752 7.449-31.213 22.68l-36.949 36.949 76.103 76.333q11.102 11.179 17.923 26.436 6.82 15.256 6.82 31.462 0 30.102-20.833 50.602-20.833 20.5-50.423 20.5-17.18 0-31.269-5.025-14.09-5.026-25.573-16.1l-75.927-76.259-174.642 174.641q-6.384 6.384-9.756 14.953-3.372 8.569-3.372 16.933 0 15.703 9.975 25.46 9.974 9.756 25.188 9.756 8.889 0 17.607-3.948 8.717-3.949 14.102-9.334l127.59-127.59 24.103 24.103L289.82-380q-6.384 6.898-9.756 15.269-3.372 8.372-3.372 17.039 0 14.513 10.436 24.949 10.436 10.435 24.949 10.435 8.667 0 17.384-3.615 8.718-3.615 14.103-9.513l136.821-136.743 24.102 24.102-136.59 136.154q-5.461 5.898-9.294 14.658-3.834 8.761-3.834 17.65 0 14.513 10.436 24.949 10.436 10.435 24.949 10.435 8.667 0 16.884-3.371 8.218-3.372 14.603-9.757l136.821-136.743L582.564-360l-136.82 136.821q-6.385 6.384-9.757 15.525t-3.372 16.885q0 15.59 10.449 25.103 10.449 9.512 25.013 9.512Zm-.034 33.847q-29.761 0-50.825-22.321-21.064-22.32-18.372-55.913-34 .977-56.615-19.715-22.616-20.693-21.462-58.282-37.077.384-58.423-20.936-21.346-21.321-19.423-57.141-32.718.897-55.436-17.539-22.718-18.436-22.718-51.615 0-14.923 5.957-29.892 5.957-14.968 16.684-25.929l198.975-198.897 97 97q6.512 6.589 15.735 10.987 9.222 4.397 20.111 4.397 14.487 0 25.949-10.91 11.461-10.91 11.461-26.526 0-9.589-4.243-18.102-4.244-8.513-10.834-15.539L403.949-776.795q-15.154-15.231-31.834-22.68-16.679-7.448-36.423-7.448-19.444 0-35.427 7.448-15.983 7.449-31.174 22.585l-125.04 125.172q-14.641 14.641-22.487 33.205-7.846 18.564-7.641 40.436-.308 15.462 4.487 29.911 4.795 14.448 12.744 26.577l-25.949 25.435q-10.538-15.923-17.692-37.935-7.154-22.013-7.513-44.988-.36-28.051 10.025-53.167 10.385-25.115 29.847-44.576l124.077-124.078q20.102-20.025 43.08-29.871 22.978-9.847 49.449-9.847 26.471 0 49.125 9.847 22.654 9.846 42.679 29.871l36.949 36.949 36.948-36.949q20.103-20.025 42.696-29.871 22.593-9.847 49.064-9.847t49.51 9.847q23.038 9.846 43.064 29.871L838.59-648.82q20.026 20.025 31.103 45.509 11.076 25.483 11.076 51.794 0 26.312-11.076 48.966-11.077 22.654-31.103 42.679L523.821-145.179q-11.795 12.307-25.906 17.59-14.111 5.282-29.872 5.282ZM340.436-622.718Z"/></svg>