<svg xmlns="http://www.w3.org/2000/svg" height="40" viewBox="0 -960 960 960" width="40"><path d="M138.461-160q-24.577 0-41.519-16.942Q80-193.884 80-218.461v-483.078q0-24.577 16.942-41.519Q113.884-760 138.461-760h683.078q24.577 0 41.519 16.942Q880-726.116 880-701.539v483.078q0 24.577-16.942 41.519Q846.116-160 821.539-160H138.461Zm0-33.846h683.078q9.231 0 16.923-7.692 7.692-7.692 7.692-16.923v-483.078q0-9.231-7.692-16.923-7.692-7.692-16.923-7.692H138.461q-9.231 0-16.923 7.692-7.692 7.692-7.692 16.923v483.078q0 9.231 7.692 16.923 7.692 7.692 16.923 7.692Zm180-85.436h323.078v-38.051H318.461v38.051ZM203.897-411.333h63.641v-63.488h-63.641v63.488Zm163.077 0h63.641v-63.488h-63.641v63.488Zm162.411 0h63.641v-63.488h-63.641v63.488Zm163.077 0h63.641v-63.488h-63.641v63.488ZM203.897-573.436h63.641v-63.334h-63.641v63.334Zm163.077 0h63.641v-63.334h-63.641v63.334Zm162.411 0h63.641v-63.334h-63.641v63.334Zm163.077 0h63.641v-63.334h-63.641v63.334Zm-578.616 379.59v-532.308 532.308Z"/></svg>