<svg xmlns="http://www.w3.org/2000/svg" height="40" viewBox="0 -960 960 960" width="40"><path d="M480-447.128q-31.957 0-52.979-21.851Q406-490.829 406-522.923v-243.231q0-30.855 21.315-52.351Q448.631-840 479.961-840q31.33 0 52.684 21.495Q554-797.009 554-766.154v243.231q0 32.094-21.021 53.944-21.022 21.851-52.979 21.851Zm0-196.103ZM463.077-140v-144.743q-94.308-7.642-158.693-75.718Q240-428.538 240-522.923h33.846q0 85.769 60.239 145.32 60.238 59.552 145.705 59.552 85.466 0 145.915-59.552 60.449-59.551 60.449-145.32H720q0 94.385-64.384 162.462-64.385 68.076-158.693 75.718V-140h-33.846ZM480-480.974q17.154 0 28.654-12.065 11.5-12.064 11.5-30.092v-243.023q0-17-11.544-28.5-11.545-11.5-28.61-11.5-17.065 0-28.61 11.5-11.544 11.5-11.544 28.5v243.231q0 17.82 11.5 29.884 11.5 12.065 28.654 12.065Z"/></svg>