<svg width="200" height="100" viewBox="0 0 200 100" fill="none" xmlns="http://www.w3.org/2000/svg">
<path d="M81.864 71.5073C94.7755 82.8619 102.639 82.7459 117.741 71.5073" stroke="#EEEEEE" stroke-width="10"/>
<path d="M39.3375 89.6602C61.0631 95.3707 83.5253 82.2435 89.5084 60.3397C95.4914 38.4359 82.7296 16.0502 61.0041 10.3397C39.2785 4.62925 16.8163 17.7565 10.8332 39.6603C4.8502 61.564 17.612 83.9498 39.3375 89.6602Z" fill="#FFEBEE"/>
<path d="M160.662 89.6603C182.388 83.9498 195.15 61.5641 189.167 39.6603C183.184 17.7565 160.721 4.62928 138.996 10.3398C117.27 16.0502 104.509 38.436 110.492 60.3397C116.475 82.2435 138.937 95.3707 160.662 89.6603Z" fill="#F5F5F5"/>
<path d="M176 50C176 53.283 175.353 56.5339 174.097 59.5671C172.841 62.6002 170.999 65.3562 168.678 67.6777C166.356 69.9991 163.6 71.8406 160.567 73.097C157.534 74.3534 154.283 75 151 75C147.717 75 144.466 74.3534 141.433 73.097C138.4 71.8406 135.644 69.9991 133.322 67.6777C131.001 65.3562 129.159 62.6002 127.903 59.5671C126.647 56.5339 126 53.283 126 50L151 50H176Z" fill="#E0E0E0"/>
<path d="M126 38C132.503 31.2618 136.004 31.4052 142 38" stroke="#E0E0E0" stroke-width="3"/>
<path d="M160 38C166.503 31.2618 170.004 31.4052 176 38" stroke="#E0E0E0" stroke-width="3"/>
<path d="M76 65C76 61.717 75.3534 58.4661 74.097 55.4329C72.8406 52.3998 70.9991 49.6438 68.6777 47.3223C66.3562 45.0009 63.6002 43.1594 60.5671 41.903C57.5339 40.6466 54.283 40 51 40C47.717 40 44.4661 40.6466 41.4329 41.903C38.3998 43.1594 35.6438 45.0009 33.3223 47.3223C31.0009 49.6438 29.1594 52.3998 27.903 55.4329C26.6466 58.4661 26 61.717 26 65H51H76Z" fill="#FF0000"/>
<path d="M26 33C32.5029 39.7382 36.0038 39.5948 42 33" stroke="#FF0000" stroke-width="3"/>
<path d="M60 33C66.5029 39.7382 70.0038 39.5948 76 33" stroke="#FF0000" stroke-width="3"/>
</svg>
