<svg width="200" height="100" viewBox="0 0 200 100" fill="none" xmlns="http://www.w3.org/2000/svg">
<path d="M81.864 71.5073C94.7755 82.862 102.639 82.746 117.741 71.5073" stroke="#EEEEEE" stroke-width="10"/>
<path d="M39.3376 89.6602C61.0631 95.3707 83.5253 82.2435 89.5084 60.3397C95.4914 38.4359 82.7296 16.0502 61.0041 10.3397C39.2785 4.62925 16.8163 17.7565 10.8333 39.6603C4.85021 61.564 17.612 83.9498 39.3376 89.6602Z" fill="#FFEBEE"/>
<ellipse rx="8.62613" ry="11.094" transform="matrix(0.967149 0.254211 -0.263498 0.96466 44.0109 31.5128)" fill="#FF0000"/>
<ellipse rx="8.62613" ry="11.094" transform="matrix(0.967149 0.254211 -0.263498 0.96466 63.2635 36.5732)" fill="#FF0000"/>
<path d="M34.4336 59.0208C47.7704 51.8815 54.2131 53.6837 63.9541 66.7801" stroke="#FF0000" stroke-width="5"/>
<path d="M160.662 89.6602C182.388 83.9498 195.15 61.564 189.167 39.6603C183.184 17.7565 160.721 4.62925 138.996 10.3397C117.27 16.0502 104.509 38.436 110.492 60.3397C116.475 82.2435 138.937 95.3707 160.662 89.6602Z" fill="#F5F5F5"/>
<ellipse rx="8.62614" ry="11.094" transform="matrix(0.967149 -0.254211 0.263498 0.96466 135.071 37.0108)" fill="#E0E0E0"/>
<ellipse rx="8.62613" ry="11.094" transform="matrix(0.967149 -0.254211 0.263498 0.96466 154.324 31.9504)" fill="#E0E0E0"/>
<path d="M138.649 57.6618C152.269 65.8372 158.708 64.0244 168.169 49.9025" stroke="#E0E0E0" stroke-width="5"/>
</svg>
