<svg xmlns="http://www.w3.org/2000/svg" height="40" viewBox="0 -960 960 960" width="40"><path d="M218.461-160q-24.577 0-41.519-16.942Q160-193.884 160-218.461v-523.078q0-24.577 16.942-41.519Q193.884-800 218.461-800h350.026l-33.846 33.846h-316.18q-9.231 0-16.923 7.692-7.692 7.692-7.692 16.923v523.078q0 9.231 7.692 16.923 7.692 7.692 16.923 7.692h523.078q9.231 0 16.923-7.692 7.692-7.692 7.692-16.923v-321.078L800-573.385v354.924q0 24.577-16.942 41.519Q766.116-160 741.539-160H218.461ZM480-480Zm-80 80v-104.616l362.641-362.641q5.128-5.128 11.308-7.102 6.179-1.975 13.128-1.975 6.256 0 12.415 2.052 6.158 2.051 11.149 6.923l52.718 51.41q5.816 5.613 8.511 12.51 2.694 6.897 2.694 13.873 0 6.976-2.124 13.257-2.124 6.28-7.542 11.796L500.769-400H400Zm440.795-388.769-52.872-55.693 52.872 55.693ZM433.846-433.846h52.77l272.923-272.923-26.206-26.564-29.102-27.59-270.385 270.231v56.846Zm299.487-299.487-29.102-27.59 29.102 27.59 26.206 26.564-26.206-26.564Z"/></svg>