<svg xmlns="http://www.w3.org/2000/svg" height="40" viewBox="0 -960 960 960" width="40"><path d="m733.795-433.846-538-201.334 10.666-32.513 534.924 200.718Q774-454.616 787-431.128q13 23.487 13 52.41v120.257q0 24.577-16.942 41.519Q766.116-200 741.539-200H218.461q-24.577 0-41.519-16.942Q160-233.884 160-258.461v-116.924q0-24.577 16.942-41.519 16.942-16.942 41.519-16.942h515.334Zm7.744 200q9.231 0 16.923-7.692 7.692-7.692 7.692-16.923v-116.924q0-9.23-7.692-16.923Q750.77-400 741.539-400H218.461q-9.231 0-16.923 7.692-7.692 7.693-7.692 16.923v116.924q0 9.231 7.692 16.923 7.692 7.692 16.923 7.692h523.078ZM400-300h300v-33.846H400V-300Zm-122.951 10.769q11.9 0 19.733-7.959t7.833-19.859q0-11.9-7.959-19.733t-19.859-7.833q-11.9 0-19.733 7.959t-7.833 19.859q0 11.9 7.959 19.733t19.859 7.833Zm-83.203 55.385V-400-233.846Z"/></svg>