<svg xmlns="http://www.w3.org/2000/svg" height="40" viewBox="0 -960 960 960" width="40"><path d="M661.539-120H298.461q-23.718 0-41.089-17.372Q240-154.743 240-178.461v-603.078q0-23.718 17.372-41.089Q274.743-840 298.461-840h363.078q23.718 0 41.089 17.372Q720-805.257 720-781.539v603.078q0 23.718-17.372 41.089Q685.257-120 661.539-120Zm0-33.846q10.769 0 17.692-6.923t6.923-17.692v-603.078q0-10.769-6.923-17.692t-17.692-6.923H298.461q-10.769 0-17.692 6.923t-6.923 17.692v603.078q0 10.769 6.923 17.692t17.692 6.923h363.078ZM480.546-616.513q26.3 0 44.698-18.79 18.397-18.79 18.397-44.833 0-26.044-18.473-44.697-18.472-18.654-45.15-18.654-26.044 0-44.441 18.79-18.398 18.79-18.398 44.833 0 26.044 18.534 44.697 18.534 18.654 44.833 18.654ZM480-220.41q58.513 0 99.051-40.539Q619.59-301.487 619.59-360q0-58.513-40.539-99.051Q538.513-499.59 480-499.59q-58.513 0-99.051 40.539Q340.41-418.513 340.41-360q0 58.513 40.539 99.051Q421.487-220.41 480-220.41Zm-.106-33.846q-43.663 0-74.651-31.094-30.987-31.093-30.987-74.756t31.094-74.651q31.093-30.987 74.756-30.987t74.651 31.094q30.987 31.093 30.987 74.756t-31.094 74.651q-31.093 30.987-74.756 30.987ZM273.846-806.154v652.308-652.308Z"/></svg>