<svg xmlns="http://www.w3.org/2000/svg" height="24" viewBox="0 -960 960 960" width="24"><path d="M200-200v-381.923l-95.846 71.154-23.923-31.462L480-840l400.769 297.538-24.154 31.693L480-790 240-611.385V-240h146.923v40H200ZM700-89.615q-45.077 31.307-88.269 29.884-43.193-1.423-76.885-35.115-33.692-33.692-35.115-77.269-1.423-43.577 29.884-87.885-31.307-45.077-29.884-88.269 1.423-43.193 35.115-76.885 33.692-33.692 77.269-35.115 43.577-1.423 87.885 29.884 45.077-31.307 88.269-29.884 43.193 1.423 76.885 35.115 33.692 33.692 35.115 77.269 1.423 43.577-29.884 87.885 31.307 45.077 29.884 88.269-1.423 43.193-35.115 76.885-33.692 33.692-77.269 35.115Q744.308-58.308 700-89.615Zm0-48.77 34.462 23.539Q758.615-98 787.308-100.385q28.692-2.384 49.307-23Q857.231-144 860-172.692q2.769-28.693-14.077-52.846L821.615-260l23.539-34.462q16.846-24.153 14.461-52.846-2.384-28.692-23-49.307Q816-417.231 787.308-420q-28.693-2.769-52.846 14.077L700-381.615l-34.462-23.539Q641.385-422 612.692-419.615q-28.692 2.384-49.307 23Q542.769-376 540-347.308q-2.769 28.693 14.077 52.846L578.385-260l-23.539 34.462Q538-201.385 540.385-172.692q2.384 28.692 23 49.307Q584-102.769 612.692-100q28.693 2.77 52.846-14.077L700-138.385Zm0-90.076q13.308 0 22.423-9.116 9.116-9.115 9.116-22.423 0-13.308-9.116-22.423-9.115-9.116-22.423-9.116-13.308 0-22.423 9.116-9.116 9.115-9.116 22.423 0 13.308 9.116 22.423 9.115 9.116 22.423 9.116ZM480-495.384ZM700-260Z"/></svg>