<svg xmlns="http://www.w3.org/2000/svg" height="48" viewBox="0 -960 960 960" width="48"><path d="M255.115-230.769q43.322 0 74.757-31.016 31.435-31.015 31.435-74.907 0-32.849-19.461-62.386-19.462-29.537-56.539-40.46l5.231 4.076v-271.604q0-12.93-10.722-24.048-10.722-11.117-25.327-11.117-12.912 0-23.855 11.117-10.942 11.118-10.942 24.048v271.604l5.231-4.076Q187.077-429.09 168-399.543q-19.077 29.547-19.077 62.98 0 44.964 31.427 75.379 31.427 30.415 74.765 30.415ZM255.23-187q-62.769 0-106.423-43.729-43.654-43.73-43.654-106.55 0-39.277 19.308-74.508 19.308-35.232 51.462-55.051v-240.47q0-32.091 23.626-55.391Q223.175-786 256.225-786q31.929 0 55.006 23.631 23.077 23.63 23.077 55.061v240.47q31.384 19.819 51.077 55.059 19.692 35.241 19.692 75.269 0 60.847-44.769 105.179Q315.538-187 255.23-187Zm274.616-193.692q-43.384-26.616-76.346-74.526-32.961-47.911-32.961-114.013 0-90.09 63.502-153.429Q547.543-786 637.865-786q90.783 0 153.998 62.902 63.214 62.901 63.214 154.085 0 65.581-32.461 113.143-32.462 47.562-75.616 75.178H529.846Zm13.231-43.77h191q32.693-23.681 54.962-61.557 22.269-37.875 22.269-83.212 0-72.112-50.56-122.556t-122.934-50.444q-72.163 0-122.834 50.521-50.672 50.521-50.672 122.479 0 46.106 23.113 83.982 23.112 37.875 55.656 60.787ZM638.308-187q-22.369 0-37.569-14.354-15.2-14.353-16.893-35.723H691.77q-1.693 21.77-16.593 35.923Q660.277-187 638.308-187ZM539-281.692v-43.769h197.616v43.769H539Zm-283.385-55Zm382.693-247.154Z"/></svg>