<svg xmlns="http://www.w3.org/2000/svg" height="40" viewBox="0 -960 960 960" width="40"><path d="M480-86.154 360.974-205.333H599.18L480-86.153ZM178.461-320q-24.577 0-41.519-16.942Q120-353.884 120-378.461v-363.078q0-24.577 16.942-41.519Q153.884-800 178.461-800h603.078q24.577 0 41.519 16.942Q840-766.116 840-741.539v363.078q0 24.577-16.942 41.519Q806.116-320 781.539-320H178.461Zm0-33.846h603.078q9.231 0 16.923-7.692 7.692-7.692 7.692-16.923v-363.078q0-9.231-7.692-16.923-7.692-7.692-16.923-7.692H178.461q-9.231 0-16.923 7.692-7.692 7.692-7.692 16.923v363.078q0 9.231 7.692 16.923 7.692 7.692 16.923 7.692Zm151.898-57.18h299.436v-55.384H330.359v55.384ZM208.256-532.308h55.385v-55.384h-55.385v55.384Zm122.103 0h55.384v-55.384h-55.384v55.384Zm121.949 0h55.384v-55.384h-55.384v55.384Zm122.102 0h55.385v-55.384H574.41v55.384Zm121.949 0h55.385v-55.384h-55.385v55.384ZM208.256-654.103h55.385v-55.384h-55.385v55.384Zm122.103 0h55.384v-55.384h-55.384v55.384Zm121.949 0h55.384v-55.384h-55.384v55.384Zm122.102 0h55.385v-55.384H574.41v55.384Zm121.949 0h55.385v-55.384h-55.385v55.384ZM153.846-353.846v-412.308 412.308Z"/></svg>