<svg xmlns="http://www.w3.org/2000/svg" height="40" viewBox="0 -960 960 960" width="40"><path d="M480-120q-100.667 0-170.333-69.666Q240-259.333 240-360v-243.077q0-100.667 69.667-170.334Q379.333-843.077 480-843.077t170.333 69.666Q720-703.744 720-603.077V-360q0 100.667-69.667 170.334Q580.667-120 480-120Zm16.923-483.077h189.231q0-81.846-54.859-140.898-54.859-59.051-134.372-65.154v206.052Zm-223.077 0h189.231v-206.052q-79.513 6.103-134.372 65.154-54.859 59.052-54.859 140.898ZM479.79-153.846q85.466 0 145.915-60.3T686.154-360v-209.231H273.846V-360q0 85.554 60.239 145.854 60.238 60.3 145.705 60.3Zm.21-415.385Zm16.923-33.846Zm-33.846 0ZM480-569.231Z"/></svg>