<svg xmlns="http://www.w3.org/2000/svg" height="24" viewBox="0 -960 960 960" width="24"><path d="M681.538-372.308q-13.077 0-21.923-8.846-8.846-8.846-8.846-21.923v-153.846q0-13.077 8.846-21.923 8.846-8.846 21.923-8.846h113.847q13.077 0 21.923 8.846 8.846 8.846 8.846 21.923V-520h-35.385v-32.308H686.154v144.616h104.615V-440h35.385v36.923q0 13.077-8.846 21.923-8.846 8.846-21.923 8.846H681.538Zm-289.23 0v-215.384h144.615q13.077 0 21.923 8.846 8.846 8.846 8.846 21.923v49.231q0 11.615-5.346 18.5Q557-482.308 544.615-480q12.385 2.308 17.731 9.192 5.346 6.885 5.346 18.5v49.231q0 13.077-8.846 21.923-8.846 8.846-21.923 8.846H392.308Zm35.384-125.384h104.616v-54.616H427.692v54.616Zm0 90h104.616v-54.616H427.692v54.616Zm-293.846 35.384v-184.615q0-13.077 8.846-21.923 8.846-8.846 21.923-8.846h113.847q13.076 0 21.923 8.846 8.846 8.846 8.846 21.923v184.615h-35.385V-440H169.231v67.692h-35.385Zm35.385-103.077h104.615v-76.923H169.231v76.923Z"/></svg>