<svg xmlns="http://www.w3.org/2000/svg" height="48" viewBox="0 -960 960 960" width="48"><path d="M715.154-135 449.615-401q-22.769 10.308-46.941 15.846-24.172 5.539-50.549 5.539-93.879 0-159.194-66.055-65.316-66.054-65.316-159.561 0-27.743 6.44-52.048 6.439-24.305 18.022-48.029l144.154 141.846 100.923-98-143.77-144.307q23.654-11.693 47.86-18.962T352.462-832q95.474 0 162.006 65.955Q581-700.091 581-605.298q0 27.683-5.154 51.336-5.154 23.654-16.23 45.885l265.769 265.538q9.923 10.104 9.923 23.322 0 13.217-9.752 22.844l-64.881 63.082q-8.448 8.753-22.523 7.983-14.075-.769-22.998-9.692Zm24.077-37.616 47.307-47.307L507-499.462q12.231-23.538 21.231-50.884 9-27.346 9-54.885 0-75.239-61.731-134.158-61.731-58.919-150.577-45.534l101.769 102.231q9.231 10.251 8.731 24.087t-9.731 24.067l-104 99.615q-10.524 11-24.223 11-13.7 0-23.7-11L174.462-634q-13.616 97.231 46.377 153.923 59.993 56.692 132.018 56.692 25.887 0 53.033-7.115 27.147-7.115 52.11-24.115l281.231 281.999ZM473.692-487.231Z"/></svg>