<?xml version="1.0" encoding="utf-8"?>
<!-- Generator: Adobe Illustrator 21.0.2, SVG Export Plug-In . SVG Version: 6.00 Build 0)  -->
<svg version="1.1" id="Layer_1" xmlns="http://www.w3.org/2000/svg" xmlns:xlink="http://www.w3.org/1999/xlink" x="0px" y="0px"
	 viewBox="0 0 306.7 104" style="enable-background:new 0 0 306.7 104;" xml:space="preserve">
<style type="text/css">
	.st0{fill:#8DD5F6;}
	.st1{fill:#8BD5F6;}
	.st2{fill:#86D3F6;}
	.st3{fill:#89D4F6;}
	.st4{fill:#87D3F6;}
	.st5{fill:#87D4F6;}
	.st6{fill:#85D3F5;}
	.st7{fill:#86D3F5;}
	.st8{fill:#85D3F6;}
	.st9{fill:#88D4F6;}
	.st10{fill:#81D1F5;}
	.st11{fill:#80D1F5;}
	.st12{fill:#82D2F5;}
	.st13{fill:#83D2F5;}
	.st14{fill:#89D4F5;}
	.st15{fill:#8CD5F6;}
	.st16{fill:#80D2F5;}
	.st17{fill:#00B4EE;}
	.st18{fill:#635A98;}
	.st19{fill:#655D9A;}
	.st20{fill:#685F9C;}
	.st21{fill:#68609C;}
	.st22{fill:#6C649F;}
	.st23{fill:#564D8F;}
	.st24{fill:#665D9A;}
	.st25{fill:#6A629D;}
	.st26{fill:#665E9A;}
	.st27{fill:#675F9C;}
	.st28{fill:#605796;}
	.st29{fill:#605896;}
	.st30{fill:#69619C;}
	.st31{fill:#665E9B;}
	.st32{fill:#766FA6;}
	.st33{fill:#544B8E;}
	.st34{fill:#6C659F;}
	.st35{fill:#645C99;}
	.st36{fill:#625A98;}
	.st37{fill:#948EBA;}
	.st38{fill:#6B639E;}
	.st39{fill:#6E66A0;}
	.st40{fill:#615897;}
	.st41{fill:#5D5594;}
	.st42{fill:#675F9B;}
	.st43{fill:#645B99;}
	.st44{fill:#625998;}
	.st45{fill:#5F5695;}
	.st46{fill:#7972A7;}
	.st47{fill:#7D76AA;}
	.st48{fill:#635B99;}
	.st49{fill:#6B629E;}
	.st50{fill:#B1ACCD;}
	.st51{fill:#D8D6E7;}
	.st52{fill:#8079AC;}
	.st53{fill:#5A5192;}
	.st54{fill:#2A2075;}
	.st55{fill:#615997;}
	.st56{fill:#645C9A;}
	.st57{fill:#D6D4E6;}
	.st58{fill:#958FBB;}
	.st59{fill:#69619D;}
	.st60{fill:#675E9B;}
	.st61{fill:#5F5696;}
	.st62{fill:#5D5595;}
	.st63{fill:#605897;}
	.st64{fill:#5E5595;}
	.st65{fill:#968FBB;}
	.st66{fill:#554C8F;}
	.st67{fill:#7F78AC;}
	.st68{fill:#7F77AB;}
	.st69{fill:#69609C;}
	.st70{fill:#8078AC;}
	.st71{fill:#7871A7;}
	.st72{fill:#817AAD;}
	.st73{fill:#7C75AA;}
	.st74{fill:#766EA5;}
	.st75{fill:#6E65A0;}
	.st76{fill:#A39EC5;}
	.st77{fill:#736BA4;}
	.st78{fill:#7972A8;}
	.st79{fill:#7D75AA;}
	.st80{fill:#7770A6;}
	.st81{fill:#7770A7;}
	.st82{fill:#756DA5;}
	.st83{fill:#7F78AB;}
	.st84{fill:#68619C;}
	.st85{fill:#8179AD;}
	.st86{fill:#292075;}
</style>
<g transform="matrix( 0.368438720703125, 0, 0, 0.368438720703125, 5.2,1.2) ">
	<g>
		<g id="Layer0_1_FILL">
			<path class="st0" d="M196.5,262.3c-0.5,0.1-1,0.3-1.5,0.5c0,0.1,0,0.2,0,0.3c0.6-0.1,1.2-0.3,1.7-0.6c0,0,0.1,0,0.1-0.1
				C196.7,262.2,196.6,262.3,196.5,262.3 M72.7,259.2c0.4,0.5,0.9,0.8,1.5,1c0.1,0,0.2,0,0.3,0c0-0.1,0-0.1-0.1-0.1
				C74,259.7,73.4,259.4,72.7,259.2 M16,74c-0.1,0-0.1,0-0.1,0.1c-0.7,1.3-1.4,2.5-2.1,3.7c0,0.2,0,0.3,0,0.5c0,0.1,0,0.2,0,0.3
				c0.8-1.3,1.6-2.8,2.2-4.2C16,74.2,16,74.1,16,74 M260.2,75.7c0-0.1,0-0.1,0-0.2c-0.2-0.8-0.6-1.5-1.2-2c0.3,0.8,0.6,1.6,1.1,2.2
				C260.1,75.7,260.2,75.7,260.2,75.7 M260.7,76.7c0.2,0.8,0.4,1.5,0.8,2.2c0,0,0.1,0.1,0.1,0.1c0-0.1,0-0.2,0-0.3
				C261.5,77.9,261.2,77.3,260.7,76.7z"/>
			<path class="st1" d="M200.7,260c0,0.1,0,0.2,0,0.3c0.7-0.2,1.2-0.4,1.7-0.9c0,0,0.1,0,0.1-0.1c-0.1,0-0.2,0-0.3,0
				C201.7,259.5,201.2,259.8,200.7,260 M43.2,38.2c0,0,0-0.1,0-0.2c-0.1,0-0.1,0-0.2,0c-1.7,1.5-3.4,3.1-5,4.7c0,0.1,0,0.2,0,0.2
				c0,0.1,0,0.2,0,0.3C39.8,41.6,41.5,39.9,43.2,38.2z"/>
			<path class="st2" d="M227.2,242.2c-0.1,0-0.1,0-0.2,0.1c-0.4,0.2-0.7,0.4-1.1,0.7c0,0.1,0,0.2,0,0.3c0.5-0.2,0.9-0.4,1.2-0.8
				C227.2,242.4,227.2,242.3,227.2,242.2 M232.7,237.2c-0.1,0-0.1,0-0.2,0.1c-0.8,0.6-1.5,1.3-2.3,1.9c0,0.1,0,0.2,0,0.3
				c0.9-0.6,1.7-1.3,2.4-2.1C232.7,237.4,232.7,237.3,232.7,237.2 M241.9,48.2c-0.2-0.4-0.5-0.8-0.9-1c0.2,0.5,0.4,0.9,0.8,1.2
				c0.1,0,0.1,0,0.2,0C242,48.4,242,48.3,241.9,48.2 M237.2,43.2c0-0.1,0-0.1-0.1-0.2c-1.6-2-3.4-3.8-5.4-5.3
				c1.8,1.8,3.5,3.6,5.3,5.4C237.1,43.2,237.2,43.2,237.2,43.2 M226.2,32.5c-0.3-0.4-0.7-0.6-1.2-0.8c0.2,0.4,0.6,0.8,1,1
				c0.1,0,0.2,0,0.3,0C226.2,32.7,226.2,32.6,226.2,32.5z"/>
			<path class="st3" d="M229.2,240.5c-0.1,0-0.1,0-0.2,0.1c-0.4,0.3-0.9,0.6-1.3,0.9c0,0.1,0,0.2,0,0.3c0.6-0.2,1.1-0.6,1.4-1.1
				C229.2,240.7,229.2,240.6,229.2,240.5z"/>
			<path class="st4" d="M236.5,233.2c0,0.1,0,0.2,0,0.3c0.9-0.6,1.6-1.4,2.2-2.3c0,0,0.1-0.1,0.1-0.2c-0.1,0-0.1,0-0.2,0.1
				c-0.6,0.7-1.3,1.4-2.1,1.9C236.5,233.1,236.5,233.2,236.5,233.2z"/>
			<path class="st5" d="M240.9,228.7c0,0,0.1-0.1,0.1-0.2c-0.1,0-0.1,0-0.1,0.1c-0.3,0.4-0.7,0.7-1.1,0.9c0,0.1,0,0.2,0,0.3
				c0,0.1,0,0.2,0,0.3C240.3,229.7,240.7,229.3,240.9,228.7z"/>
			<path class="st6" d="M242.4,227c0-0.1,0.1-0.2,0.1-0.3c-0.1,0-0.1,0-0.1,0.1c-0.2,0.3-0.5,0.6-0.9,0.7c0,0.1,0,0.2,0,0.3
				c0,0.1,0,0.2,0,0.3C241.9,227.8,242.2,227.4,242.4,227 M44.7,239.2c0-0.1,0-0.1,0-0.2c-0.7-0.8-1.5-1.5-2.5-2.1
				c0.6,0.9,1.4,1.6,2.3,2.2C44.6,239.2,44.7,239.2,44.7,239.2 M0.7,127c0-0.1,0-0.2,0-0.3c-0.1,0-0.1,0-0.2,0c0,0.7,0,1.3,0,2
				c0,0.1,0,0.2,0,0.3C0.8,128.5,0.9,127.9,0.7,127 M45,36c0,0.1,0,0.2,0,0.3c0.6-0.2,1.1-0.6,1.5-1c0,0,0-0.1,0-0.2
				c-0.1,0-0.1,0-0.2,0C45.9,35.3,45.4,35.7,45,36 M274.7,147c-0.1,0-0.1,0-0.3,0c0,0.7,0,1.3,0,2c0,0.1,0,0.2,0,0.3
				c0.3-0.5,0.4-1.1,0.3-2C274.7,147.2,274.7,147.1,274.7,147z"/>
			<path class="st7" d="M35.5,230c0-0.1,0-0.2,0-0.3c-0.2-0.4-0.5-0.8-1-1c0.2,0.5,0.4,0.9,0.8,1.2C35.4,230,35.4,230,35.5,230
				 M47.2,241.3c-0.3-0.4-0.7-0.6-1.2-0.8c0.2,0.4,0.6,0.8,1,0.9c0.1,0,0.2,0.1,0.2,0.1C47.2,241.4,47.2,241.4,47.2,241.3
				 M48.4,33.4c0,0,0-0.1,0-0.2c-0.1,0-0.1,0-0.2,0c-0.4,0.2-0.7,0.4-1,0.7c0,0.1,0,0.2,0,0.3C47.7,34.1,48.1,33.8,48.4,33.4
				 M128.2,0.5c-0.1,0-0.2,0-0.3,0c-0.6,0-1.2,0-1.8,0c0,0.1,0,0.2,0,0.2c0.7,0,1.3,0,2-0.1V0.5 M240.2,46.3
				c-0.4-0.6-0.9-1.2-1.4-1.5c0.3,0.7,0.7,1.3,1.3,1.7c0.1,0,0.1,0,0.2,0C240.2,46.4,240.2,46.4,240.2,46.3z"/>
			<path class="st8" d="M36.7,231.2c0.6,0.9,1.2,1.7,2,2.4c0.1,0,0.1,0.1,0.2,0.1c0-0.1,0-0.1,0-0.2
				C38.3,232.6,37.6,231.9,36.7,231.2 M35.2,45.7c0,0.1,0,0.2,0,0.3c0,0.1,0,0.2,0,0.3c0.5-0.3,0.9-0.7,1.2-1.3c0,0,0-0.1,0-0.2
				c-0.1,0-0.1,0-0.2,0C36,45.2,35.7,45.5,35.2,45.7 M228.7,35c0.3,0.5,0.7,0.9,1.3,1.2c0.1,0,0.1,0,0.2,0c0-0.1,0-0.1-0.1-0.2
				C229.8,35.6,229.3,35.2,228.7,35z"/>
			<path class="st9" d="M33.7,228c0-0.1,0-0.2,0-0.3c-0.2-0.4-0.5-0.8-1-1c0.2,0.5,0.4,0.9,0.8,1.2C33.6,228,33.7,228,33.7,228
				 M48,242.2c0.2,0.4,0.6,0.8,1,0.9c0.1,0,0.2,0.1,0.3,0.1c0-0.1,0-0.1,0-0.2C48.9,242.7,48.5,242.4,48,242.2z"/>
			<path class="st10" d="M152,175c-0.1,0-0.2,0-0.3,0c0,14.9,0,29.8,0,44.7c0,14.9,0,29.8,0,44.7c0,3.5,0,7,0,10.5
				c0.2,0,0.3,0,0.5,0c0.1,0,0.2,0,0.3,0c0-0.1,0-0.1,0-0.3h-0.3c-0.2-3.4-0.3-6.8-0.3-10.3c0-14.9,0-29.8,0-44.7
				C152,204.8,152,189.9,152,175 M142,0.2c0.8,0.3,1.8,0.4,3,0.2c0.1,0,0.2,0,0.3,0c0-0.1,0-0.1,0-0.1C144.1,0.3,143.1,0.2,142,0.2
				 M275,142c-0.1,0-0.1,0-0.3,0c0,1,0,2,0,3c0,0.1,0,0.2,0,0.3c0.3-0.8,0.4-1.8,0.3-3C275,142.2,275,142.1,275,142z"/>
			<path class="st11" d="M98,139c0-0.8,0-1.7,0-2.5c-0.1,0-0.2,0-0.3,0c0,0.9,0,1.8,0.1,2.8c0,0,0.1,0,0.2,0
				C98,139.2,98,139.1,98,139 M0.2,134c0,0.1,0,0.2,0,0.3c0.3-0.9,0.4-1.9,0.2-3.2c0-0.1,0-0.2,0-0.3c-0.1,0-0.1,0-0.2,0
				C0.2,131.8,0.2,132.9,0.2,134 M274.8,133.7c0,0,0.1,0,0.1,0c0-0.1,0-0.2,0-0.3c0.1-1.2,0.1-2.2-0.3-3
				C274.7,131.6,274.8,132.6,274.8,133.7 M177.2,136.2c0,1.1,0,2.2,0,3.3c0,0.1,0,0.2,0,0.3h0.1
				C177.6,138.4,177.5,137.2,177.2,136.2z"/>
			<path class="st12" d="M0.6,149c0,0,0.1,0,0.1,0c0-0.1,0-0.2,0-0.3c0.1-0.8,0-1.4-0.2-1.8C0.5,147.7,0.5,148.3,0.6,149 M133.2,0.4
				V0.2c-0.1,0-0.2,0-0.3,0c-1,0-2,0-3,0c0,0.1,0,0.2,0,0.2C131.1,0.5,132.1,0.5,133.2,0.4 M148.7,0.7c0.1,0,0.2,0,0.3,0
				c0-0.1,0-0.1,0-0.1c-0.7-0.1-1.3-0.1-2-0.1C147.4,0.8,147.9,0.9,148.7,0.7z"/>
			<path class="st13" d="M0.2,141.7c0,1.2,0,2.3,0.1,3.5c0,0,0.1,0,0.1,0c0-0.1,0-0.2,0-0.3C0.6,143.7,0.5,142.6,0.2,141.7 M34.3,47
				c-0.2,0.3-0.5,0.6-0.8,0.7c0,0.1,0,0.2,0,0.2c0,0.1,0,0.2,0,0.3c0.4-0.2,0.8-0.6,1-1c0-0.1,0-0.1,0-0.3C34.4,47,34.4,47,34.3,47
				 M226.7,33.2c0.2,0.4,0.6,0.8,1,1c0.1,0,0.2,0,0.3,0c0-0.1,0-0.1-0.1-0.2C227.6,33.7,227.2,33.4,226.7,33.2z"/>
			<path class="st14" d="M50.2,31.9c0,0,0-0.1,0-0.2c-0.1,0-0.1,0-0.2,0c-0.4,0.2-0.7,0.4-1,0.7c0,0.1,0,0.2,0,0.3
				C49.5,32.6,49.9,32.3,50.2,31.9z"/>
			<path class="st15" d="M79.2,13.2c0.6-0.1,1.2-0.3,1.7-0.6c0,0,0.1-0.1,0.1-0.1c-0.1,0-0.2,0-0.3,0.1c-0.5,0.1-1,0.3-1.5,0.4
				C79.2,13.1,79.2,13.2,79.2,13.2z"/>
			<path class="st16" d="M274.7,128.7c0-0.1,0-0.2,0-0.3c0.1-0.8,0.1-1.4-0.3-1.8c0,0.7,0,1.3,0.1,2
				C274.6,128.7,274.7,128.7,274.7,128.7z"/>
			<path class="st17" d="M259,73.5c0-0.1,0-0.1,0-0.2c-3.3-5.8-6.8-11.5-10.5-17c-0.1,0-0.1,0-0.1,0c-1.4-1.9-2.9-3.6-4.6-5.2
				c0-0.1,0-0.1-0.1-0.3c-0.3-1-0.9-1.8-1.7-2.3c-0.1,0-0.1,0-0.2,0c-0.4-0.3-0.6-0.7-0.8-1.2c0-0.1,0-0.1-0.1-0.2
				c-0.2-0.2-0.4-0.4-0.7-0.5c-0.1,0-0.1,0-0.2,0c-0.6-0.4-1-1-1.3-1.7c0-0.1,0-0.1-0.1-0.2c-0.5-0.4-0.9-0.9-1.4-1.3
				c-0.1,0-0.1,0-0.2,0c-1.8-1.8-3.5-3.6-5.3-5.4c0-0.1,0-0.1-0.1-0.2c-0.5-0.4-0.9-0.9-1.4-1.3c-0.1,0-0.1,0-0.2,0
				c-0.6-0.3-1-0.7-1.3-1.2c0-0.1,0-0.1-0.1-0.2c-0.2-0.2-0.4-0.4-0.7-0.5c-0.1,0-0.2,0-0.3,0c-0.4-0.2-0.8-0.5-1-1
				c0-0.1,0-0.1-0.1-0.2c-0.1-0.1-0.3-0.2-0.4-0.3c-0.1,0-0.2,0-0.3,0c-0.4-0.2-0.8-0.5-1-1c0-0.1,0-0.1-0.1-0.2
				c-0.5-0.6-1.3-1.1-2.2-1.3c0-0.1,0-0.1-0.1-0.2c-0.3-0.4-0.6-0.9-0.9-1.3c-0.1,0-0.2,0-0.3,0c-0.9-0.2-1.4-0.7-1.8-1.5
				c-0.1,0-0.1,0-0.2,0c-8.1-6-17.1-11-27-15.2c-0.3-0.5-0.8-0.9-1.4-1.1c-0.6-0.2-1.2-0.4-1.9-0.7c-1.1-0.5-2.2-0.9-3.5-1.4
				c-10.7-4.1-22.9-6.8-36.6-7.9c-0.1,0-0.2,0-0.3,0c-0.8,0.1-1.4,0-1.8-0.2c-0.1,0-0.2,0-0.3,0c-0.5,0-1,0-1.5,0
				c-0.1,0-0.2,0-0.3,0c-1.2,0.1-2.2,0-3-0.2c-0.1,0-0.2,0-0.3,0c-2.8,0-5.7,0-8.5,0v0.1c-1.1,0.1-2.2,0.1-3.2,0.1
				c-0.1,0-0.2,0-0.3,0c-0.5,0-1,0-1.5,0v0.1c-0.7,0.1-1.3,0.1-2,0.1c-0.1,0-0.2,0-0.3,0c-6.2,0.6-12.2,1.4-18,2.5
				c0,0.1,0,0.2-0.1,0.2c-0.4,0.2-0.8,0.4-1.2,0.6c-0.1,0-0.2,0-0.3,0c-0.6,0-1.2,0-1.7,0c0,0.1,0,0.2-0.1,0.2
				c-8.3,2.3-16.2,5-23.7,8.1c0,0.1,0,0.2,0,0.3c0,0.1,0,0.1-0.1,0.1c-0.5,0.3-1.1,0.5-1.7,0.6c-0.6,0.2-1.2,0.5-1.7,0.8
				C67.7,19.1,58.6,25,50.2,31.5c0,0.1,0,0.2,0,0.2c0,0.1,0,0.2,0,0.2c-0.3,0.4-0.7,0.6-1.2,0.8c-0.1,0-0.1,0-0.2,0
				c-0.1,0.1-0.2,0.1-0.3,0.2c0,0.1,0,0.2,0,0.3c0,0.1,0,0.2,0,0.2c-0.3,0.4-0.7,0.6-1.2,0.8c-0.1,0-0.1,0-0.1,0
				c-0.1,0.3-0.3,0.4-0.6,0.5c0,0.1,0,0.2,0,0.3c0,0.1,0,0.2,0,0.2c-0.4,0.5-0.8,0.8-1.5,1c-0.1,0-0.1,0-0.2,0
				c-0.5,0.6-1,1.1-1.6,1.5c0,0.1,0,0.2,0,0.2c0,0.1,0,0.2,0,0.2c-1.7,1.7-3.4,3.4-5.2,5c-0.1,0-0.1,0-0.2,0
				c-0.4,0.5-0.8,0.9-1.3,1.2c0,0.1,0,0.2,0,0.3c0,0.1,0,0.2,0,0.2c-0.3,0.6-0.7,1-1.2,1.3c-0.1,0-0.1,0-0.2,0
				c-0.1,0.3-0.3,0.4-0.6,0.5c0,0.1,0,0.2,0,0.3c0,0.1,0,0.2,0,0.3c-0.2,0.4-0.5,0.8-1,1c-0.1,0-0.1,0-0.2,0
				C27,56.2,21.2,64.6,16,73.5c0,0.1,0,0.2,0,0.3c0,0.1,0,0.2,0,0.3c0,0.1,0,0.2-0.1,0.3c-0.6,1.5-1.4,2.9-2.2,4.2
				c-1.6,3-3,6.2-4.3,9.6c-4.2,10.6-7,22.6-8.6,35.9c0,0.8,0,1.7,0,2.5c0,0.1,0,0.2,0,0.3c0,0.1,0,0.2,0,0.3c0.1,0.9,0,1.5-0.2,2
				c0,0.5,0,1,0,1.5c0,0.1,0,0.2,0,0.3c0,0.1,0,0.2,0,0.3c0.1,1.3,0,2.4-0.2,3.2c0,2.4,0,4.8,0,7.3c0,0.1,0,0.2,0,0.3
				c0.3,0.9,0.4,1.9,0.2,3.3c0,0.1,0,0.2,0,0.3c0,0.5,0,1,0,1.5c0,0.1,0,0.2,0,0.3c0.3,0.4,0.4,0.9,0.2,1.8c0,0.1,0,0.2,0,0.3
				c1.2,13.7,3.9,25.9,8.2,36.6c1.2,2.9,2.3,6,3.3,9.1c5,10,10.6,19.2,16.9,27.8c1.1,1.5,2.3,2.9,3.5,4.2c0.4,0.2,0.8,0.6,1,1
				c0,0.1,0,0.2,0,0.3c0.2,0.3,0.4,0.5,0.5,0.7c0.1,0,0.1,0.1,0.2,0.1c0.4,0.2,0.8,0.6,1,1c0,0.1,0,0.2,0,0.3c0.3,0.4,0.7,0.8,1,1.2
				c0.1,0,0.1,0.1,0.2,0.1c0.9,0.6,1.6,1.4,2.2,2.3c0,0.1,0,0.1,0,0.2c1,1.1,2,2.2,3,3.2c0.1,0,0.1,0.1,0.2,0.1
				c0.9,0.6,1.8,1.3,2.5,2.1c0,0.1,0,0.1,0,0.2c0.3,0.4,0.7,0.8,1,1.2c0.1,0,0.1,0.1,0.2,0.1c0.5,0.2,0.9,0.4,1.2,0.8
				c0,0.1,0,0.1,0,0.2c0.2,0.3,0.4,0.5,0.5,0.7c0.1,0,0.1,0.1,0.2,0.1c0.5,0.2,0.9,0.4,1.2,0.8c0,0.1,0,0.1,0,0.2
				c7.1,5.9,14.9,11.2,23.3,16c0.1,0,0.1,0,0.2,0c0.7,0.2,1.2,0.4,1.7,0.9c0,0,0.1,0.1,0.1,0.1c2.2,0.9,4.2,2,6.2,3.1
				c0,0,0.1,0.1,0.1,0.1c8,3.4,16.6,6.2,25.7,8.6c0,0,0.1,0.1,0.1,0.1c5.2,1,10.6,1.9,16.2,2.6c0,0,0,0.1,0,0.1c0.2,0,0.3,0,0.5,0
				c0.1,0,0.2,0,0.3,0c0-3.5,0-7,0-10.5c0-14.9,0-29.8,0-44.7c0-14.9,0-29.8,0-44.7c-3.9-1.6-7.5-3.5-10.6-5.8
				c-8.6-6.4-13.6-16.3-14.9-29.9c-0.1,0-0.1,0-0.2,0c-0.1-0.9-0.1-1.8-0.1-2.8c0.1,0,0.2,0,0.3,0c0-0.1,0-0.2,0-0.3
				c0-1.1,0-2.2,0-3.3c2.5-12.4,8.1-21.7,16.8-27.9c6-4.3,13.9-6.4,23.9-6.5c3.6,0,6.8,0.4,9.7,1.3c11.4,3.5,19.6,10.2,24.7,20
				c2.3,4.5,3.7,9.9,4.1,16.3c0.3,1,0.3,2.1,0.1,3.5h-0.1c-0.3,4.9-1.2,9.1-2.7,12.8c-4.3,10.6-11.8,18-22.5,22.2c0,0.1,0,0.2,0,0.3
				c0,14.9,0,29.8,0,44.7c0,14.9,0,29.8,0,44.7c0,3.4,0.1,6.9,0.3,10.3h0.3c5.5-0.6,10.9-1.5,16-2.5c0.1,0,0.2,0,0.3,0
				c9.2-2.6,17.9-5.6,26.2-9.1c0,0,0.1,0,0.1-0.1c0-0.1,0-0.1,0-0.3c0.5-0.2,1-0.3,1.5-0.5c0.1,0,0.2,0,0.3,0c0-0.1,0-0.1,0-0.3
				c1.3-0.5,2.6-1.1,3.8-1.7c0.1,0,0.1,0,0.2,0c0-0.1,0-0.1,0-0.3c0.5-0.2,1-0.5,1.5-0.7c0.1,0,0.2,0,0.3,0
				c8.5-4.6,16.3-9.9,23.4-15.8c0,0,0.1-0.1,0.1-0.2c0-0.1,0-0.2,0-0.3c0.3-0.3,0.7-0.5,1.1-0.7c0.1,0,0.1-0.1,0.2-0.1
				c0.2-0.1,0.3-0.2,0.4-0.3c0,0,0.1-0.1,0.1-0.2c0-0.1,0-0.2,0-0.3c0.4-0.3,0.9-0.7,1.3-0.9c0.1,0,0.1-0.1,0.2-0.1
				c0.3-0.3,0.7-0.5,0.9-0.8c0,0,0.1-0.1,0.1-0.2c0-0.1,0-0.2,0-0.3c0.8-0.7,1.5-1.3,2.3-1.9c0.1,0,0.1-0.1,0.2-0.1
				c1.2-1.2,2.5-2.3,3.7-3.6c0,0,0.1-0.1,0.1-0.2c0-0.1,0-0.2,0-0.3c0-0.1,0-0.2,0-0.3c0.8-0.6,1.4-1.2,2.1-1.9
				c0.1,0,0.1-0.1,0.2-0.1c0.3-0.3,0.7-0.5,0.9-0.8c0,0,0.1-0.1,0.1-0.2c0-0.1,0-0.2,0-0.3c0-0.1,0-0.2,0-0.3
				c0.4-0.2,0.8-0.6,1.1-0.9c0,0,0.1-0.1,0.1-0.1c0.2-0.1,0.3-0.2,0.4-0.3c0,0,0.1-0.1,0.1-0.2c0-0.1,0-0.2,0-0.3c0-0.1,0-0.2,0-0.3
				c0.4-0.1,0.7-0.4,0.9-0.7c0,0,0.1-0.1,0.1-0.1c1.5-1.3,2.7-2.9,3.7-4.8c0,0,0.1-0.1,0.1-0.2c6.5-8,12.1-16.9,16.6-26.9
				c0,0,0.1-0.1,0.1-0.1c3.4-8.1,6.3-16.7,8.6-25.9c0,0,0.1-0.1,0.1-0.1c1.2-6.1,2.1-12.5,2.8-19.2c0-0.1,0-0.2,0-0.3
				c0-0.1,0-0.2,0-0.3c0-0.7,0-1.3,0-2c0.1,0,0.2,0,0.3,0c0-0.1,0-0.2,0-0.3c0-0.5,0-1,0-1.5c0-0.1,0-0.2,0-0.3c0-1,0-2,0-3
				c0.1,0,0.2,0,0.3,0c0-0.1,0-0.2,0-0.3c0-2.7,0-5.3,0-8c-0.1,0-0.1,0-0.1,0c-0.1-1.1-0.1-2.2-0.1-3.2c0-0.1,0-0.2,0-0.3
				c0-0.5,0-1,0-1.5c-0.1,0-0.1,0-0.1,0c-0.1-0.7-0.1-1.3-0.1-2c-0.2-3.8-0.6-7.3-1.2-10.7c-2.1-12.8-5.6-24.2-10.5-34.2
				c0-0.1,0-0.2,0-0.3c-0.1-1.1-0.4-1.9-1-2.5c-0.1,0-0.1,0-0.1-0.1c-0.4-0.7-0.7-1.4-0.8-2.2c-0.1,0-0.1,0-0.1-0.1
				c-0.1-0.3-0.3-0.6-0.4-0.9c-0.1,0-0.1,0-0.1-0.1C259.6,75.1,259.3,74.3,259,73.5z"/>
			<path class="st18" d="M322.5,241.7c0-0.1,0-0.1,0-0.2c-1.2-1.5-2.5-2.8-4-4.1c1.1,1.5,2.4,2.9,3.8,4.2
				C322.4,241.7,322.4,241.7,322.5,241.7 M480.9,246.4c0,0,0-0.1,0-0.2c-0.1,0-0.1,0-0.2,0.1c-0.5,0.7-1.1,1.2-1.8,1.7
				c0,0.1,0,0.2,0,0.3c0,0.1,0,0.2,0,0.3C479.8,247.9,480.4,247.2,480.9,246.4z"/>
			<path class="st19" d="M317.7,236.7c0-0.1,0-0.1,0-0.2c-0.4-0.6-0.9-1.1-1.5-1.6c0.3,0.7,0.7,1.2,1.3,1.7
				C317.6,236.7,317.7,236.7,317.7,236.7 M422,1.2c0.7,0.3,1.6,0.4,2.7,0.2c0.1,0,0.2,0,0.3,0c0-0.1,0-0.1,0-0.1
				C424,1.3,423,1.2,422,1.2z"/>
			<path class="st20" d="M323.1,88c0,0,0.1,0,0.1,0c0-0.1,0-0.2,0-0.3c0.1-1,0.1-1.7-0.3-2.2C323,86.3,323,87.2,323.1,88 M457.7,264
				c0,0.1,0,0.2,0,0.3c0.7-0.2,1.2-0.4,1.7-0.9c0,0,0,0,0-0.1c-0.1,0-0.1,0-0.3,0C458.7,263.5,458.2,263.8,457.7,264z"/>
			<path class="st21" d="M323.2,88.2c0,0.7,0,1.3,0.1,2c0,0,0.1,0,0.1,0c0-0.1,0-0.2,0-0.3C323.6,89.2,323.5,88.6,323.2,88.2
				 M476.4,251.2c0,0,0-0.1,0-0.2c-0.1,0-0.1,0-0.2,0.1c-0.7,0.6-1.4,1.1-2,1.7c0,0.1,0,0.2,0,0.3
				C475.1,252.5,475.8,251.9,476.4,251.2 M395.7,58.9c0,0,0,0,0-0.2c-0.1,0-0.1,0-0.3,0c-0.7,0.1-1.3,0.4-1.8,0.7c0,0.1,0,0.2,0,0.3
				C394.4,59.5,395.1,59.2,395.7,58.9 M699.2,241.2c0.4-0.2,0.8-0.6,1-1c0-0.1,0-0.2,0-0.3c-0.1,0-0.1,0-0.2,0.1
				c-0.2,0.3-0.5,0.6-0.8,0.7c0,0.1,0,0.2,0,0.3C699.2,241.1,699.2,241.2,699.2,241.2 M671.5,16.2c0-0.1,0-0.1,0-0.1
				c-0.5-0.2-1-0.4-1.5-0.6c0.2,0.5,0.6,0.7,1.3,0.8C671.3,16.2,671.4,16.2,671.5,16.2 M624.7,54.7c0-0.1,0-0.1,0-0.2
				c-1-0.1-2-0.1-3-0.1c0,0.1,0,0.2,0,0.3c0.9,0,1.9,0,2.8,0C624.6,54.7,624.7,54.7,624.7,54.7z"/>
			<path class="st22" d="M323,76.2c-0.1,0-0.1,0-0.3,0c0,2.8,0.1,5.7,0.1,8.5h0.1c0-0.1,0-0.2,0-0.3C323,81.8,323,79,323,76.2
				 M454.7,126.7c0-0.1,0-0.1,0-0.2c-0.5-0.2-1-0.4-1.5-0.6c0.2,0.5,0.6,0.7,1.3,0.8C454.6,126.7,454.7,126.7,454.7,126.7z"/>
			<path class="st23" d="M323.2,73.5c-0.1,0-0.1,0-0.3,0c0,0.6,0,1.2,0,1.8c0,0.1,0,0.2,0,0.3c0.3-0.4,0.4-1,0.3-1.8
				C323.2,73.7,323.2,73.6,323.2,73.5z"/>
			<path class="st24" d="M500,200.2c0-0.1,0-0.2,0-0.3c-0.1,0-0.1,0-0.3,0c0,0.8,0,1.5,0,2.3c0,0.1,0,0.2,0,0.3
				C500,202,500.1,201.2,500,200.2 M427.7,1.7c0-0.1,0-0.1,0-0.1c-0.7-0.1-1.5-0.1-2.3-0.1c0.5,0.3,1.1,0.4,2,0.2
				C427.6,1.7,427.7,1.7,427.7,1.7z"/>
			<path class="st25" d="M500,199c0,0.1,0,0.2,0,0.3h0.1c0.2-3.3,0.2-6.4-0.1-9.2C500,193,500,196,500,199 M399.7,274.2
				c0.7,0.3,1.6,0.4,2.8,0.3c0.1,0,0.2,0,0.3,0c0-0.1,0-0.1,0-0.1C401.7,274.3,400.7,274.2,399.7,274.2 M635.2,270
				c0,0.1,0,0.2,0,0.3c0.8,0,1.5,0,2.3-0.1V270c-0.1,0-0.1,0-0.3,0C636.6,270,635.9,270,635.2,270 M716.5,186.5c0,3.1,0,6.2,0,9.2
				c0,0.1,0,0.2,0,0.3h0.2C716.8,192.6,716.8,189.5,716.5,186.5z"/>
			<path class="st26" d="M324.8,243.9c0.1,0,0.1,0.1,0.2,0.1c0-0.1,0-0.2,0-0.3c-0.2-0.5-0.6-0.9-1.2-1
				C324.1,243.2,324.4,243.6,324.8,243.9 M334.2,40.7c0.7-0.6,1.1-1.3,1.5-2.3c0-0.1,0-0.1,0-0.3c-0.1,0-0.1,0-0.1,0
				c-0.4,0.8-0.8,1.4-1.4,2c0,0.1,0,0.2,0,0.3C334.2,40.6,334.2,40.7,334.2,40.7 M630.5,5.2L630.5,5.2c-1.3-0.2-2.7-0.3-4-0.3
				c-0.1,0-0.1,0-0.3,0c1.1,0.3,2.5,0.4,4,0.3C630.3,5.2,630.4,5.2,630.5,5.2z"/>
			<path class="st27" d="M454.5,265.5c0,0.1,0,0.2,0,0.3c0.7-0.1,1.2-0.3,1.7-0.6c0,0,0,0,0-0.1c-0.1,0-0.1,0-0.3,0
				C455.5,265.2,455,265.3,454.5,265.5 M440.3,205.5c-0.3,0.8-0.6,1.4-1.1,1.9c0,0.1,0,0.2,0,0.3c0,0.1,0,0.2,0,0.3
				c0.6-0.5,1.1-1.3,1.3-2.3c0-0.1,0-0.2,0-0.3C440.4,205.5,440.4,205.5,440.3,205.5 M707.7,228.2c0,0.1,0,0.2,0,0.3
				c0,0.1,0,0.2,0,0.3c0.8-0.9,1.4-1.9,1.7-3.3c0-0.1,0-0.2,0-0.3c-0.1,0-0.1,0-0.2,0.1C708.9,226.4,708.4,227.4,707.7,228.2z"/>
			<path class="st28" d="M473.9,253.4c0,0,0-0.1,0-0.2c-0.1,0-0.1,0-0.2,0.1c-0.4,0.2-0.7,0.4-1,0.7c0,0.1,0,0.2,0,0.3
				C473.2,254.1,473.6,253.8,473.9,253.4 M339.2,124.7c0-0.1,0-0.2,0-0.3c-0.2-0.4-0.5-0.8-1-1c0.2,0.5,0.4,0.9,0.8,1.2
				C339.1,124.7,339.2,124.7,339.2,124.7 M340.5,31.7c0,0.1,0,0.2,0,0.3c0,0.1,0,0.2,0,0.3c0.4-0.2,0.8-0.6,1-1c0-0.1,0-0.1,0-0.3
				c-0.1,0-0.1,0-0.1,0C341.1,31.4,340.9,31.6,340.5,31.7 M684.2,127.5c0,0.1,0,0.2,0,0.3c0.7-0.3,1.2-0.8,1.7-1.3c0,0,0-0.1,0-0.2
				c-0.1,0-0.1,0-0.2,0.1C685.3,126.7,684.7,127.1,684.2,127.5 M689.7,122.4c0,0,0-0.1,0-0.2c-0.1,0-0.1,0-0.2,0.1
				c-0.4,0.5-0.8,0.9-1.3,1.2c0,0.1,0,0.2,0,0.3c0,0.1,0,0.2,0,0.3C688.8,123.6,689.3,123.1,689.7,122.4z"/>
			<path class="st29" d="M417.5,274.5c-0.1,0-0.1,0-0.3,0c-4.5,0-9,0-13.5,0c4.4,0.3,8.9,0.3,13.8,0.1V274.5z"/>
			<path class="st30" d="M421.2,274.4v-0.1c-0.1,0-0.1,0-0.3,0c-0.8,0-1.7,0-2.5,0c0,0.1,0,0.2,0,0.3
				C419.4,274.5,420.3,274.5,421.2,274.4z"/>
			<path class="st31" d="M423.7,274c-0.1,0-0.1,0-0.3,0c-0.6,0-1.2,0-1.7,0c0,0.1,0,0.2,0,0.3c0.7,0,1.3,0,2-0.1V274 M430.5,216.3
				c-0.7,0.4-1.5,0.7-2.3,0.9c0,0.1,0,0.2,0,0.3c1-0.2,1.8-0.6,2.5-1.1c0,0,0-0.1,0-0.1C430.7,216.2,430.6,216.3,430.5,216.3
				 M379.5,152.5c0.4,0.4,0.9,0.7,1.5,0.8c0.1,0,0.2,0,0.3,0c0-0.1,0-0.1,0-0.1C380.7,152.8,380.2,152.6,379.5,152.5 M637.7,269.7
				c0,0.1,0,0.2,0,0.3c0.7,0,1.3,0,2-0.1v-0.1c-0.1,0-0.1,0-0.3,0C638.9,269.7,638.3,269.7,637.7,269.7 M716.5,197
				c0-0.1,0-0.2,0-0.3c-0.1,0-0.1,0-0.3,0c0,0.8,0,1.7,0,2.5c0,0.1,0,0.2,0,0.3C716.5,198.9,716.6,198,716.5,197 M705.7,83.5
				c0,0.6,0,1.2,0,1.8c0,0.1,0,0.2,0,0.3c0.3-0.4,0.4-1,0.3-1.8c0-0.1,0-0.2,0-0.3C705.9,83.5,705.8,83.5,705.7,83.5z"/>
			<path class="st32" d="M423.2,219.2c0.8,0,1.5-0.2,2-0.6c0,0,0-0.1,0-0.1c-0.1,0-0.1,0-0.2,0.1c-0.5,0.2-1.1,0.4-1.8,0.4
				C423.2,219.1,423.2,219.2,423.2,219.2z"/>
			<path class="st33" d="M414.5,220.6v-0.1c-0.1,0-0.1,0-0.3,0c-1.9,0-3.8,0-5.8,0C410.3,220.8,412.3,220.8,414.5,220.6 M381,77.7
				c-0.1,0-0.1,0-0.3,0c0,1.3,0,2.5,0.1,3.8c0,0,0.1,0,0.1,0c0-0.1,0-0.2,0-0.3C381,80.1,381,78.9,381,77.7 M416.5,55.2
				c0.1,0,0.2,0,0.3,0v-0.1c-2.2-0.1-4.3-0.2-6.5-0.2c0,0.1,0,0.2,0,0.3C412.3,55.2,414.4,55.2,416.5,55.2 M412.2,1
				c-0.1,0-0.1,0-0.3,0c-0.1,0-0.1,0-0.3,0c-1.2,0-2.5,0-3.8,0c0,0.1,0,0.2,0,0.2C409.4,1.2,410.8,1.2,412.2,1L412.2,1 M525.2,5
				c-0.1,0-0.1,0-0.3,0c0,14.9,0,29.8,0,44.7c0,14.9,0,29.8,0,44.7c0,14.9,0,29.8,0,44.7c0,14.9,0,29.8,0,44.7c0,14.9,0,29.8,0,44.7
				c0,14,0,28,0,42c0.1,0,0.2,0,0.3,0c0-14,0-28,0-42c0-14.9,0-29.8,0-44.7c0-14.9,0-29.8,0-44.7c0-14.9,0-29.8,0-44.7
				c0-14.9,0-29.8,0-44.7C525.2,34.8,525.2,19.9,525.2,5 M743.2,5c-0.1,0-0.1,0-0.3,0c0,14.9,0,29.8,0,44.7c0,14.9,0,29.8,0,44.7
				c0,14.9,0,29.8,0,44.7c0,14.9,0,29.8,0,44.7c0,14.9,0,29.8,0,44.7c0,14,0,28,0,42c0.1,0,0.2,0,0.3,0c0-14,0-28,0-42
				c0-14.9,0-29.8,0-44.7c0-14.9,0-29.8,0-44.7c0-14.9,0-29.8,0-44.7c0-14.9,0-29.8,0-44.7C743.2,34.8,743.2,19.9,743.2,5z"/>
			<path class="st34" d="M407.5,220.3c-0.8-0.1-1.7-0.1-2.5-0.1c0.5,0.3,1.3,0.4,2.3,0.3c0.1,0,0.2,0,0.3,0
				C407.5,220.4,407.5,220.4,407.5,220.3z"/>
			<path class="st35" d="M482.4,244.7c0-0.1,0-0.2,0-0.3c-0.1,0-0.1,0-0.1,0.1c-0.2,0.3-0.5,0.6-0.9,0.7c0,0.1,0,0.2,0,0.3
				c0,0.1,0,0.2,0,0.3C481.9,245.5,482.2,245.2,482.4,244.7 M437.3,183.2c0.1,0,0.1,0.1,0.2,0.1c0-0.1,0-0.1,0-0.2
				c-0.8-1.2-1.9-2.3-3.2-3.1C435.2,181.1,436.3,182.2,437.3,183.2 M472.5,77.7c0.5-0.4,0.8-0.9,1-1.5c0-0.1,0-0.2,0-0.3
				c-0.1,0-0.1,0-0.1,0.1c-0.2,0.5-0.5,0.9-0.9,1.2c0,0.1,0,0.2,0,0.3C472.5,77.6,472.5,77.7,472.5,77.7 M476.5,70
				c0,0.1,0,0.2,0,0.3c0.5-0.4,0.8-0.9,1-1.5c0-0.1,0-0.2,0-0.3c-0.1,0-0.1,0-0.1,0.1c-0.2,0.5-0.5,0.9-0.9,1.2
				C476.5,69.8,476.5,69.9,476.5,70 M479.5,64.7c-0.1,0-0.1,0-0.1,0.1c-0.2,0.5-0.5,0.9-0.9,1.2c0,0.1,0,0.2,0,0.3
				c0,0.1,0,0.2,0,0.3c0.5-0.4,0.8-0.9,1-1.5C479.5,64.9,479.5,64.8,479.5,64.7 M474.5,73.7c0,0.1,0,0.2,0,0.3
				c0.5-0.4,0.8-0.9,1-1.5c0-0.1,0-0.2,0-0.3c-0.1,0-0.1,0-0.1,0.1c-0.2,0.5-0.5,0.9-0.9,1.2C474.5,73.6,474.5,73.7,474.5,73.7
				 M481.4,61.2c0-0.1,0-0.1,0-0.3c-0.1,0-0.1,0-0.1,0c-0.2,0.5-0.5,0.9-0.9,1.2c0,0.1,0,0.2,0,0.3c0,0.1,0,0.2,0,0.3
				C481,62.4,481.3,61.9,481.4,61.2 M483.3,57.3c-0.2,0.5-0.5,0.9-0.9,1.2c0,0.1,0,0.2,0,0.3c0,0.1,0,0.2,0,0.3
				c0.5-0.4,0.8-0.9,1-1.5c0-0.1,0-0.1,0-0.3C483.4,57.2,483.4,57.3,483.3,57.3 M485.4,53.7c0-0.1,0-0.1,0-0.3c-0.1,0-0.1,0-0.1,0
				c-0.2,0.5-0.5,0.9-0.9,1.2c0,0.1,0,0.2,0,0.3c0,0.1,0,0.2,0,0.3C485,54.9,485.3,54.4,485.4,53.7 M429.7,2c0.1,0,0.2,0,0.3,0
				c0-0.1,0-0.1,0-0.1c-0.7-0.1-1.3-0.1-2-0.1C428.4,2,428.9,2.1,429.7,2 M487.5,49.7c-0.1,0-0.1,0-0.1,0c-0.2,0.5-0.5,0.9-0.9,1.2
				c0,0.1,0,0.2,0,0.3c0,0.1,0,0.2,0,0.3c0.5-0.4,0.8-0.9,1-1.5C487.5,49.9,487.5,49.8,487.5,49.7 M489.4,46.2c0-0.1,0-0.1,0-0.3
				c-0.1,0-0.1,0-0.1,0c-0.2,0.5-0.5,0.9-0.9,1.2c0,0.1,0,0.2,0,0.3c0,0.1,0,0.2,0,0.3C489,47.4,489.3,46.9,489.4,46.2 M491.4,42.5
				c0-0.1,0-0.1,0-0.3c-0.1,0-0.1,0-0.1,0c-0.2,0.5-0.5,0.9-0.9,1.2c0,0.1,0,0.2,0,0.3c0,0.1,0,0.2,0,0.3
				C491,43.6,491.3,43.1,491.4,42.5 M493.4,38.7c0-0.1,0-0.1,0-0.3c-0.1,0-0.1,0-0.1,0c-0.2,0.5-0.5,0.9-0.9,1.2c0,0.1,0,0.2,0,0.3
				c0,0.1,0,0.2,0,0.3C493,39.9,493.3,39.4,493.4,38.7 M494.5,36.2c0,0.1,0,0.2,0,0.3c0.5-0.4,0.8-0.9,1-1.5c0-0.1,0-0.1,0-0.3
				c-0.1,0-0.1,0-0.1,0c-0.2,0.5-0.5,0.9-0.9,1.2C494.5,36.1,494.5,36.2,494.5,36.2 M691.9,248.7c0,0,0-0.1,0-0.2
				c-0.1,0-0.1,0-0.2,0.1c-0.4,0.2-0.7,0.4-1,0.7c0,0.1,0,0.2,0,0.3C691.2,249.3,691.6,249.1,691.9,248.7 M706.2,80.2
				c0-0.1,0-0.2,0-0.3c0-0.1,0-0.2,0-0.3c-0.1,0-0.1,0-0.3,0c0,1,0,2,0,3c0,0.1,0,0.2,0,0.3C706.3,82.3,706.3,81.4,706.2,80.2
				 M684.2,25.2c0.4,0.6,0.9,1.1,1.5,1.4c0.1,0,0.1,0,0.2,0c0-0.1,0-0.1,0-0.2C685.5,26,684.9,25.5,684.2,25.2z"/>
			<path class="st36" d="M483.5,148.7c0.1,0,0.2,0.1,0.3,0.1c0-0.1,0-0.1,0-0.2c-0.4-0.4-0.8-0.7-1.2-1.1
				C482.6,148.1,483,148.5,483.5,148.7 M385.5,66.2c0,0.1,0,0.2,0,0.3c0.5-0.3,0.9-0.7,1.2-1.3c0,0,0-0.1,0-0.2
				c-0.1,0-0.1,0-0.1,0.1c-0.3,0.4-0.7,0.7-1.1,0.9C385.5,66.1,385.5,66.2,385.5,66.2 M421.2,1.2L421.2,1.2c-2-0.2-4-0.2-6-0.2
				c1.7,0.3,3.6,0.4,5.8,0.2C421.1,1.2,421.2,1.2,421.2,1.2 M491.5,28c0-0.1,0-0.1,0-0.2c-0.4-0.5-0.9-0.8-1.5-1
				c0.3,0.5,0.7,0.9,1.3,1.2C491.4,28,491.4,28,491.5,28 M690,30.9c0.1,0,0.2,0,0.3,0c0-0.1,0-0.1,0-0.2c-0.5-0.4-1-0.9-1.5-1.3
				C688.9,30.2,689.4,30.7,690,30.9z"/>
			<path class="st37" d="M442.2,197.5h0.1c0.2-1.3,0.2-2.4-0.1-3.3c0,1,0,2,0,3C442.2,197.3,442.2,197.4,442.2,197.5z"/>
			<path class="st38" d="M440.5,187.7c0-0.1,0-0.2,0-0.3c0-0.6-0.3-1.1-0.8-1.3c0.2,0.5,0.4,1,0.6,1.4
				C440.4,187.7,440.4,187.7,440.5,187.7 M383,87.9c0.1,0,0.1,0.1,0.2,0.1c0-0.1,0-0.1,0-0.2c-0.3-0.5-0.6-1.1-1-1.6
				C382.3,87,382.5,87.6,383,87.9 M636,5.7c0.1,0,0.2,0,0.3,0c0-0.1,0-0.1,0-0.2c-0.7-0.1-1.3-0.1-2-0.1
				C634.6,5.8,635.2,5.9,636,5.7z"/>
			<path class="st39" d="M480.7,145.3c-0.4-0.5-0.9-0.8-1.5-1.1c0.3,0.5,0.7,0.9,1.3,1.2c0.1,0,0.1,0.1,0.2,0.1
				C480.7,145.4,480.7,145.4,480.7,145.3z"/>
			<path class="st40" d="M477.4,142.3c-0.4-0.5-0.9-0.8-1.5-1.1c0.3,0.5,0.7,0.9,1.3,1.2c0.1,0,0.1,0.1,0.2,0.1
				C477.5,142.4,477.5,142.4,477.4,142.3 M344.8,130.7c0.1,0,0.1,0.1,0.2,0.1c0-0.1,0-0.1,0-0.2c-1.5-1.8-3.2-3.5-4.9-5.1
				C341.5,127.4,343.1,129.1,344.8,130.7z"/>
			<path class="st41" d="M475.4,140.5c-0.3-0.4-0.7-0.6-1.2-0.8c0.2,0.4,0.6,0.8,1,0.9c0.1,0,0.2,0.1,0.3,0.1
				C475.5,140.7,475.5,140.6,475.4,140.5z"/>
			<path class="st42" d="M351,194.2c0.6,0.9,1.4,1.6,2.3,2.2c0.1,0,0.1,0.1,0.2,0.1c0-0.1,0-0.1,0-0.2
				C352.7,195.5,351.9,194.8,351,194.2 M673.7,260.2c1.1-0.3,2.1-0.7,3-1.4c0,0,0,0,0-0.1c-0.1,0-0.1,0-0.2,0
				c-0.9,0.5-1.8,0.9-2.8,1.2C673.7,260.1,673.7,260.2,673.7,260.2z"/>
			<path class="st43" d="M346.2,131.7c0.2,0.4,0.6,0.8,1,0.9c0.1,0,0.2,0.1,0.3,0.1c0-0.1,0-0.1,0-0.2
				C347.1,132.2,346.7,131.9,346.2,131.7 M700,143.9c0.1,0,0.2,0.1,0.3,0.1c0-0.1,0-0.1,0-0.2c-0.5-0.4-1-0.9-1.5-1.3
				C698.9,143.2,699.4,143.7,700,143.9z"/>
			<path class="st44" d="M389.2,62.9c0,0,0-0.1,0-0.2c-0.1,0-0.1,0-0.2,0c-0.4,0.2-0.7,0.4-1,0.7c0,0.1,0,0.2,0,0.3
				C388.5,63.6,388.9,63.3,389.2,62.9 M470.4,80.2c-0.3-0.6-0.8-1-1.5-1.3c0.4,0.5,0.9,1,1.3,1.4c0.1,0,0.1,0.1,0.2,0.1
				C470.5,80.4,470.5,80.3,470.4,80.2z"/>
			<path class="st45" d="M342.7,29.2c0,0.1,0,0.2,0,0.3c1.8-1.4,3.4-2.9,5-4.5c0,0,0-0.1,0-0.2c-0.1,0-0.1,0-0.2,0
				C345.9,26.3,344.3,27.7,342.7,29.2z"/>
			<path class="st46" d="M394.4,2.6c0,0,0,0,0-0.1c-0.1,0-0.1,0-0.3,0c-0.4,0.1-0.9,0.2-1.5,0.2c0,0.1,0,0.2,0,0.2
				C393.4,3,394,2.9,394.4,2.6z"/>
			<path class="st47" d="M399.4,1.9c0,0,0,0,0-0.1c-0.1,0-0.1,0-0.3,0c-0.6,0.1-1.3,0.2-2,0.2c0,0.1,0,0.2,0,0.2
				C398.1,2.2,398.8,2.1,399.4,1.9z"/>
			<path class="st48" d="M467.9,77.8c-0.5-0.6-1-1-1.7-1.3c0.4,0.6,0.9,1.1,1.5,1.4c0.1,0,0.1,0.1,0.2,0.1
				C468,77.9,468,77.9,467.9,77.8z"/>
			<path class="st49" d="M409.5,55.2c-0.1,0-0.1,0-0.3,0c-0.6,0-1.2,0-1.8,0c0,0.1,0,0.2,0,0.3c0.7,0,1.3,0,2-0.1V55.2z"/>
			<path class="st50" d="M407.7,1c-0.6,0-1.2,0-1.8,0c0,0.1,0,0.2,0,0.2c0.6,0,1.1,0,1.8,0c0.1,0,0.2,0,0.3,0c0-0.1,0-0.1,0-0.2
				C407.9,1,407.8,1,407.7,1z"/>
			<path class="st51" d="M415.2,1L415.2,1c-1.1-0.2-2.2-0.2-3.3-0.2c0,0.1,0,0.2,0,0.2c0.1,0,0.2,0,0.3,0c0.9,0,1.9,0,2.8,0
				C415.1,1,415.2,1,415.2,1 M614.2,271.1c3.8,0,7.4-0.1,10.8-0.4c-3.4,0-6.8,0-10.3,0c-14.9,0-29.8,0-44.7,0c-14.9,0-29.8,0-44.8,0
				c14.6,0.3,29.3,0.4,44.3,0.4C584.4,271,599.3,271,614.2,271.1 M706.2,72.7c0,0.1,0,0.2,0,0.3c0,0.5,0,1,0,1.5c0,0.1,0,0.2,0,0.3
				c0.1,0,0.2,0,0.3,0c0-0.1,0-0.2,0-0.3C706.6,73.7,706.5,73.1,706.2,72.7 M802.5,270.7c-4.8,0-9.7,0-14.5,0c-14.9,0-29.8,0-44.7,0
				c14.6,0.3,29.3,0.5,44.2,0.5C792.7,271.2,797.7,271,802.5,270.7 M802.7,5c-0.1,0-0.1,0-0.3,0c0,14.9,0,29.8,0,44.7
				c0,14.9,0,29.8,0,44.7c0,14.9,0,29.8,0,44.7c0,14.9,0,29.8,0,44.7c0,14.9,0,29.8,0,44.7c0,14,0,28,0,42c0.1,0,0.2,0,0.3,0
				c0-14,0-28,0-42c0-14.9,0-29.8,0-44.7c0-14.9,0-29.8,0-44.7c0-14.9,0-29.8,0-44.7c0-14.9,0-29.8,0-44.7
				C802.7,34.8,802.7,19.9,802.7,5 M789.2,5c4.4,0,8.9,0,13.3,0c-4.2-0.3-8.6-0.4-13.3-0.4c-14.9,0.1-29.8,0.2-44.7,0.2
				c0,0.1,0,0.2,0,0.2C759.4,5,774.3,5,789.2,5z"/>
			<path class="st52" d="M498.7,179.5c0,0.8,0.1,1.4,0.4,1.9c0,0,0.1,0.1,0.1,0.1c0-0.1,0-0.2,0-0.3
				C499.2,180.6,499,180,498.7,179.5 M646.7,68.2c0.1,0.6,0.3,1.2,0.6,1.7c0,0,0.1,0.1,0.2,0.1c0-0.1,0-0.2,0-0.3
				C647.4,69.1,647.1,68.6,646.7,68.2z"/>
			<path class="st53" d="M496.2,33.1c0,0,0,0.1,0,0.2h0.1c-0.2-0.8-0.7-1.4-1.4-1.7C495.2,32.2,495.6,32.7,496.2,33.1z"/>
			<path class="st54" d="M496.2,33.5c0-0.1,0-0.1,0-0.3c0-0.1,0-0.1,0-0.2c-0.6-0.4-1-0.9-1.2-1.6c0-0.1,0-0.1,0-0.2
				c-1.1-1.1-2.3-2.2-3.5-3.3c-0.1,0-0.1,0-0.2,0c-0.6-0.3-1-0.7-1.3-1.2c-7.1-6.3-15.3-11.5-24.6-15.6c-10.2-4.5-22-7.6-35.4-9.1
				c-0.1,0-0.1,0-0.3,0c-0.8,0.1-1.4,0-1.8-0.2c-0.1,0-0.1,0-0.3,0c-0.1,0-0.1,0-0.3,0c-0.9,0.1-1.5,0.1-2-0.2c-0.1,0-0.1,0-0.3,0
				c-0.1,0-0.1,0-0.3,0c-0.1,0-0.1,0-0.3,0c-1.1,0.1-2.1,0-2.7-0.2c-0.1,0-0.1,0-0.3,0c-0.2,0-0.3,0-0.5,0c-0.1,0-0.1,0-0.3,0
				c-2.1,0.1-4.1,0.1-5.8-0.2c-0.1,0-0.1,0-0.3,0c-0.9,0-1.8,0-2.8,0v0.1c-1.4,0.1-2.8,0.1-4.3,0.1c-0.1,0-0.1,0-0.3,0
				c-0.6,0-1.2,0-1.8,0c-0.1,0-0.1,0-0.3,0c-2,0.2-4.1,0.4-6.3,0.5c0,0.1,0,0.1,0,0.1c-0.6,0.2-1.4,0.3-2.2,0.3c-0.1,0-0.1,0-0.3,0
				c-0.8,0.1-1.6,0.2-2.5,0.3c0,0.1,0,0.1,0,0.1c-0.4,0.3-1,0.4-1.7,0.3c-6.2,1.1-11.9,2.6-17,4.5c-10.8,4.2-20.1,9.8-28,16.9
				c0,0.1,0,0.2,0,0.3c0,0.1,0,0.2,0,0.2c-1.5,1.6-3.2,3.1-5,4.5c-0.1,0-0.1,0-0.1,0c-0.2,0.5-0.6,0.9-1.1,1.2c0,0.1,0,0.2,0,0.3
				c0,0.1,0,0.2,0,0.3c-0.2,0.4-0.5,0.8-1,1c-0.1,0-0.1,0-0.2,0c-1.5,1.9-3,3.8-4.5,5.7c0,0.1,0,0.2,0,0.3c0,0.1,0,0.2,0,0.3
				c-0.3,0.9-0.8,1.7-1.5,2.3c-0.1,0-0.1,0-0.1,0c-5.4,8.4-9,18.5-10.9,30.4c0,0.7,0,1.3,0,2c0,0.1,0,0.2,0,0.3c0,0.1,0,0.2,0,0.3
				c0.1,0.8,0.1,1.4-0.3,1.8c0,0.2,0,0.3,0,0.5c0,0.1,0,0.2,0,0.3c0,2.8,0,5.5,0,8.3c0,0.1,0,0.2,0,0.3c0,0.2,0,0.3,0,0.5
				c0,0.1,0,0.2,0,0.3c0.3,0.5,0.4,1.3,0.3,2.2c0,0.1,0,0.2,0,0.3c0,0.1,0,0.2,0,0.3c0.3,0.4,0.4,1,0.3,1.8c0,0.1,0,0.2,0,0.3
				c1.9,13,6.2,23.6,13,31.7c0.5,0.6,1.1,1.1,1.8,1.5c0.4,0.2,0.8,0.6,1,1c0,0.1,0,0.2,0,0.3c0.2,0.3,0.4,0.5,0.5,0.7
				c0.1,0,0.1,0.1,0.2,0.1c1.8,1.6,3.4,3.3,4.9,5.1c0,0.1,0,0.1,0,0.2c0.4,0.2,0.8,0.5,1.1,0.9c0,0,0.1,0.1,0.1,0.1
				c0.5,0.2,0.9,0.4,1.2,0.8c0,0.1,0,0.1,0,0.2c8,6.9,17.1,12.8,27.2,17.6c1.5,0.8,3.1,1.5,4.8,2.1c0.7,0.1,1.2,0.3,1.7,0.6
				c0,0,0,0.1,0,0.1c10.2,4.8,20.5,9.4,30.9,13.9c8.1,3.5,15.5,7.8,22.1,12.8c1.3,0.8,2.4,1.8,3.2,3.1c0,0.1,0,0.1,0,0.2
				c0.7,0.9,1.4,1.9,2.1,2.9c0,0,0.1,0.1,0.1,0.1c0.5,0.2,0.7,0.6,0.8,1.3c0,0.1,0,0.2,0,0.3c0.9,1.8,1.5,3.8,1.8,6.2
				c0,0.1,0,0.2,0,0.3c0.3,0.9,0.4,1.9,0.1,3.3h-0.1c0,0.1,0,0.2,0,0.3c-0.1,2.9-0.7,5.3-1.8,7.3c0,0.1,0,0.2,0,0.3
				c0,0.1,0,0.2,0,0.3c0,0.1,0,0.2,0,0.3c-0.2,1-0.6,1.7-1.3,2.3c-0.1,0-0.1,0-0.1,0.1c-2,3.5-4.8,6.1-8.4,7.9c0,0.1,0,0.2,0,0.3
				c0,0.1,0,0.1,0,0.1c-0.7,0.5-1.5,0.9-2.5,1.1c-0.1,0-0.1,0-0.3,0.1c-0.9,0.4-1.8,0.7-2.8,0.9c0,0.1,0,0.1,0,0.1
				c-0.5,0.4-1.1,0.6-2,0.6c-0.1,0-0.1,0-0.3,0.1c-2.6,0.6-5.4,1-8.5,1.2v0.1c-2.2,0.2-4.2,0.2-6-0.1c-0.1,0-0.1,0-0.3,0
				c-0.2,0-0.5,0-0.8,0c-0.1,0-0.1,0-0.3,0c-1,0.1-1.7,0.1-2.3-0.3c-9-1.2-17-3.3-24-6.5c-10.3-4.7-19.4-10.4-27.5-17.2
				c-0.1,0-0.1,0-0.2-0.1c-0.9-0.6-1.7-1.3-2.3-2.2c0-0.1,0-0.1,0-0.2c-1.1-1.1-2.3-2.2-3.5-3.3c-4.3,6-8.6,11.9-12.8,17.9
				c-6.3,8.7-12.6,17.3-19,25.8c0.1,0.2,0.2,0.3,0.3,0.4c0.1,0,0.1,0.1,0.2,0.1c0.6,0.4,1.1,0.9,1.5,1.6c0,0.1,0,0.1,0,0.2
				c0.2,0.3,0.4,0.5,0.5,0.7c0.1,0,0.1,0.1,0.2,0.1c1.4,1.2,2.8,2.6,4,4.1c0,0.1,0,0.1,0,0.2c0.4,0.2,0.8,0.6,1.1,0.9
				c0,0,0.1,0.1,0.1,0.1c0.6,0.1,1,0.5,1.2,1c0,0.1,0,0.2,0,0.3c8,6.9,17,12.9,27.1,17.8c10,4.8,21.3,8.4,33.8,10.8
				c4.3,0.8,8.9,1.4,13.8,1.7c1,0,2,0,3,0.1c0,0,0,0.1,0,0.1c0.3,0,0.5,0,0.8,0c0.1,0,0.2,0,0.3,0c4.5,0,9,0,13.5,0
				c0.1,0,0.2,0,0.3,0c0.3,0,0.5,0,0.8,0c0.1,0,0.2,0,0.3,0c0-0.1,0-0.1,0-0.3c0.8,0,1.7,0,2.5,0c0.1,0,0.2,0,0.3,0
				c0.1,0,0.2,0,0.3,0c0.1,0,0.2,0,0.3,0c0-0.1,0-0.1,0-0.3c0.6,0,1.1,0,1.7,0c0.1,0,0.2,0,0.3,0c11.7-1.2,21.9-3.9,30.7-8.1
				c0,0,0,0,0-0.1c0-0.1,0-0.1,0-0.3c0.5-0.2,1-0.3,1.5-0.5c0.1,0,0.2,0,0.3,0c0.5-0.2,1-0.4,1.5-0.6c0,0,0,0,0-0.1
				c0-0.1,0-0.1,0-0.3c0.5-0.2,1-0.5,1.5-0.7c0.1,0,0.2,0,0.3,0c4.9-2.4,9.3-5.4,13.2-8.8c0,0,0-0.1,0-0.2c0-0.1,0-0.2,0-0.3
				c0.3-0.3,0.7-0.5,1-0.7c0.1,0,0.1-0.1,0.2-0.1c0.1,0,0.2,0,0.2-0.1c0,0,0-0.1,0-0.2c0-0.1,0-0.2,0-0.3c0.7-0.6,1.4-1.1,2-1.7
				c0.1,0,0.1-0.1,0.2-0.1c0.8-0.8,1.6-1.5,2.5-2.3c0,0,0-0.1,0-0.2c0-0.1,0-0.2,0-0.3c0-0.1,0-0.2,0-0.3c0.7-0.5,1.3-1,1.8-1.7
				c0.1,0,0.1-0.1,0.2-0.1c0.2-0.1,0.3-0.2,0.5-0.3c0,0,0-0.1,0-0.2c0-0.1,0-0.2,0-0.3c0-0.1,0-0.2,0-0.3c0.4-0.1,0.6-0.4,0.9-0.7
				c0,0,0.1-0.1,0.1-0.1c7-7.9,12-17.8,15.2-29.5c1-3.8,1.7-8,2-12.5c0-0.1,0-0.2,0-0.3c0-0.7,0-1.5,0-2.3c0.1,0,0.2,0,0.3,0
				c0-0.1,0-0.2,0-0.3c0-0.2,0-0.3,0-0.5c0-0.1,0-0.2,0-0.3c0-3,0-6,0-9c0-0.1,0-0.2,0-0.3c-0.2-2.8-0.4-5.6-0.8-8.3
				c-0.1,0-0.1,0-0.1-0.1c-0.3-0.5-0.4-1.1-0.4-1.9c0.1-0.4,0.1-0.7,0.1-0.9c-2.9-12.2-8-22.2-15.1-29.9c-0.1,0-0.1,0-0.3-0.1
				c-0.5-0.2-0.9-0.6-1-1.2c0-0.1,0-0.1,0-0.1c-0.7-0.5-1.2-1.2-1.7-1.9c-0.1,0-0.1,0-0.2-0.1c-0.6-0.3-1-0.7-1.3-1.2
				c0-0.1,0-0.1,0-0.2c-0.6-0.5-1.1-1.1-1.7-1.6c-0.1,0-0.1,0-0.2-0.1c-0.6-0.3-1-0.7-1.3-1.2c0-0.1,0-0.1,0-0.2
				c-0.1-0.1-0.3-0.2-0.5-0.3c-0.1,0-0.1,0-0.3-0.1c-0.4-0.2-0.8-0.5-1-0.9c0-0.1,0-0.1,0-0.2c-5.9-4.9-12.4-9.1-19.4-12.8
				c-0.1,0-0.1,0-0.3,0c-0.6,0-1.1-0.3-1.3-0.8c-0.3-0.3-0.7-0.5-1-0.6c-10-4.9-20.4-9.5-31-13.7c-4-1.6-8-3.2-11.9-4.7
				c-10.9-4.2-19.6-10.5-26.1-18.9c-0.1,0-0.1,0-0.2-0.1c-0.5-0.3-0.8-0.9-0.8-1.7c0-0.1,0-0.2,0-0.3c-0.6-1.3-1-2.8-1.2-4.5
				c-0.1,0-0.1,0-0.1,0c-0.1-1.2-0.1-2.5-0.1-3.8c0.1,0,0.2,0,0.3,0c0-0.1,0-0.2,0-0.3c0.7-4.4,2.2-8,4.4-10.8c0,0,0-0.1,0-0.2
				c0-0.1,0-0.2,0-0.3c0-0.1,0-0.2,0-0.3c0.4-0.2,0.8-0.5,1.1-0.9c0,0,0.1-0.1,0.1-0.1c0.4-0.3,0.8-0.7,1.2-1.1c0,0,0-0.1,0-0.2
				c0-0.1,0-0.1,0-0.3c0.3-0.3,0.7-0.5,1-0.7c0.1,0,0.1,0,0.2,0c1.4-1,2.9-2,4.5-2.8c0,0,0,0,0-0.2c0-0.1,0-0.1,0-0.3
				c0.5-0.3,1.1-0.6,1.8-0.7c0.1,0,0.2,0,0.3,0c3.5-1.4,7.3-2.5,11.5-3.2c0.1,0,0.2,0,0.3,0c0-0.1,0-0.1,0-0.3c0.6,0,1.1,0,1.8,0
				c0.1,0,0.2,0,0.3,0c0.2,0,0.3,0,0.5,0c0.1,0,0.2,0,0.3,0c0-0.1,0-0.1,0-0.3c2.2,0,4.3,0,6.5,0.2v0.1c13.5,1.4,24.9,4.8,34.2,10.3
				c5.5,3.3,10.6,6.9,15.2,10.9c0.7,0.3,1.2,0.7,1.7,1.3c0,0.1,0,0.1,0,0.2c0.2,0.3,0.5,0.7,0.8,0.9c0.1,0,0.1,0.1,0.2,0.1
				c0.7,0.2,1.2,0.6,1.5,1.3c0,0.1,0,0.2,0,0.3c0.9-0.2,1.6-1,2-2.5c0-0.1,0-0.2,0-0.3c0-0.1,0-0.2,0-0.3c0-0.1,0-0.2,0-0.3
				c0.3-0.3,0.6-0.7,0.9-1.2c0,0,0.1-0.1,0.1-0.1c0.4-0.5,0.7-1.1,1-1.7c0-0.1,0-0.2,0-0.3c0-0.1,0-0.2,0-0.3c0-0.1,0-0.2,0-0.3
				c0.3-0.3,0.6-0.7,0.9-1.2c0,0,0.1-0.1,0.1-0.1c0.4-0.5,0.7-1.1,1-1.8c0-0.1,0-0.2,0-0.3c0-0.1,0-0.2,0-0.3c0-0.1,0-0.2,0-0.3
				c0.3-0.3,0.6-0.7,0.9-1.2c0,0,0.1-0.1,0.1-0.1c0.4-0.5,0.7-1.1,1-1.8c0-0.1,0-0.2,0-0.3c0-0.1,0-0.2,0-0.3c0-0.1,0-0.2,0-0.3
				c0.3-0.3,0.6-0.7,0.9-1.2c0,0,0.1-0.1,0.1-0.1c0.4-0.5,0.7-1.1,1-1.8c0-0.1,0-0.1,0-0.3c0-0.1,0-0.1,0-0.3c0-0.1,0-0.1,0-0.3
				c0.3-0.3,0.6-0.7,0.9-1.2c0,0,0.1,0,0.1,0c0.4-0.5,0.7-1.1,1-1.8c0-0.1,0-0.1,0-0.3c0-0.1,0-0.1,0-0.3c0-0.1,0-0.1,0-0.3
				c0.3-0.3,0.6-0.7,0.9-1.2c0,0,0.1,0,0.1,0c0.4-0.5,0.7-1.1,1-1.8c0-0.1,0-0.1,0-0.3c0-0.1,0-0.1,0-0.3c0-0.1,0-0.1,0-0.3
				c0.3-0.3,0.6-0.7,0.9-1.2c0,0,0.1,0,0.1,0c0.4-0.5,0.7-1.1,1-1.7c0-0.1,0-0.1,0-0.3c0-0.1,0-0.1,0-0.3c0-0.1,0-0.1,0-0.3
				c0.3-0.3,0.6-0.7,0.9-1.2c0,0,0.1,0,0.1,0c0.4-0.5,0.7-1.1,1-1.8c0-0.1,0-0.1,0-0.2c0-0.1,0-0.1,0-0.3c0-0.1,0-0.1,0-0.3
				c0.3-0.3,0.6-0.7,0.9-1.2c0,0,0.1,0,0.1,0c0.4-0.5,0.7-1.1,1-1.8c0-0.1,0-0.1,0-0.3c0-0.1,0-0.1,0-0.3c0-0.1,0-0.1,0-0.3
				c0.3-0.3,0.6-0.7,0.9-1.2c0,0,0.1,0,0.1,0c0.4-0.5,0.7-1.1,1-1.8c0-0.1,0-0.1,0-0.3c0-0.1,0-0.1,0-0.3c0-0.1,0-0.1,0-0.3
				c0.3-0.3,0.6-0.7,0.9-1.2c0,0,0.1,0,0.1,0c0.4-0.5,0.7-1.1,1-1.7c0-0.1,0-0.1,0-0.3c0-0.1,0-0.1,0-0.3c0-0.1,0-0.1,0-0.3
				c0.3-0.3,0.6-0.7,0.9-1.2c0,0,0.1,0,0.1,0C495.8,34.4,496.1,34,496.2,33.5 M690.2,31c-0.1,0-0.1,0-0.3,0c-0.6-0.3-1-0.8-1.3-1.5
				c0-0.1,0-0.1,0-0.2c-0.9-0.9-1.8-1.7-2.7-2.5c-0.1,0-0.1,0-0.2,0c-0.6-0.4-1.2-0.8-1.5-1.4c0-0.1,0-0.1,0-0.2
				c-3.8-3.4-8-6.3-12.7-8.8c-0.1,0-0.1,0-0.3,0c-0.6,0-1-0.3-1.3-0.8c0-0.1,0-0.1,0-0.1c-9.5-5-20.7-8.2-33.7-9.6
				c-0.1,0-0.1,0-0.3,0c-0.8,0.1-1.4,0-1.8-0.2c-0.1,0-0.1,0-0.3,0c-0.1,0-0.1,0-0.3,0c-0.1,0-0.1,0-0.3,0c-1,0.1-1.7,0-2.3-0.3
				c-0.1,0-0.1,0-0.3,0c-0.2,0-0.3,0-0.5,0c-0.1,0-0.1,0-0.3,0c-1.5,0.1-2.9,0-4-0.3c-0.1,0-0.1,0-0.3,0c-0.7,0-1.5,0-2.3,0
				c-3,0-6,0-9,0c-14.9,0-29.8,0-44.7,0c-14.9,0-29.8,0-44.8,0c0,14.9,0,29.8,0,44.7c0,14.9,0,29.8,0,44.7c0,14.9,0,29.8,0,44.7
				c0,14.9,0,29.8,0,44.7c0,14.9,0,29.8,0,44.7c0,14,0,28,0,42c14.9,0,29.9,0,44.8,0c14.9,0,29.9,0,44.7,0c3.4,0,6.9,0,10.3,0
				c0-0.1,0-0.1,0-0.3c1.8,0,3.7,0,5.5,0c0.1,0,0.2,0,0.3,0c0.3,0,0.5,0,0.8,0c0.1,0,0.2,0,0.3,0c0-0.1,0-0.1,0-0.3
				c0.8,0,1.7,0,2.5,0c0.1,0,0.2,0,0.3,0c0.2,0,0.3,0,0.5,0c0.1,0,0.2,0,0.3,0c0-0.1,0-0.1,0-0.3c0.7,0,1.3,0,2,0c0.1,0,0.2,0,0.3,0
				c0.1,0,0.2,0,0.3,0c0-0.1,0-0.1,0-0.3c0.6,0,1.1,0,1.8,0c0.1,0,0.2,0,0.3,0c12.9-1.5,24.3-4.6,34-9.3c0,0,0,0,0-0.1
				c0-0.1,0-0.1,0-0.3c1-0.3,1.9-0.7,2.8-1.2c0.1,0,0.1,0,0.2,0c5.2-2.5,9.8-5.5,13.9-9.1c0,0,0-0.1,0-0.2c0-0.1,0-0.2,0-0.3
				c0.3-0.3,0.7-0.5,1-0.7c0.1,0,0.1-0.1,0.2-0.1c0.1,0,0.2,0,0.2-0.1c0,0,0-0.1,0-0.2c0-0.1,0-0.2,0-0.3c0.8-0.7,1.5-1.3,2.3-1.9
				c0.1,0,0.1-0.1,0.2-0.1c0.7-0.6,1.3-1.2,2-1.8c0,0,0-0.1,0-0.2c0-0.1,0-0.2,0-0.3c0-0.1,0-0.2,0-0.3c0.6-0.4,1.1-0.9,1.6-1.4
				c0,0,0.1-0.1,0.2-0.1c0.3-0.2,0.5-0.3,0.7-0.6c0,0,0-0.1,0-0.2c0-0.1,0-0.2,0-0.3c0-0.1,0-0.2,0-0.3c0.4-0.1,0.6-0.4,0.8-0.7
				c0,0,0.1-0.1,0.2-0.1c2.9-3.2,5.4-6.9,7.5-11c0-0.1,0-0.2,0-0.3c0-0.1,0-0.2,0-0.3c0-0.1,0-0.2,0-0.3c0.6-0.9,1.2-1.8,1.6-2.9
				c0,0,0.1-0.1,0.2-0.1c3.7-7.1,5.9-15.6,6.8-25.5c0-0.1,0-0.2,0-0.3c0-0.1,0-0.2,0-0.3c0-0.8,0-1.7,0-2.5c0.1,0,0.2,0,0.3,0
				c0-0.1,0-0.2,0-0.3c0-0.2,0-0.3,0-0.5c0-0.1,0-0.2,0-0.3c0-3.1,0-6.1,0-9.2c-0.3-4.4-0.8-8.6-1.7-12.4
				c-2.8-12.1-7.6-22.1-14.5-30c-0.1,0-0.1,0-0.3-0.1c-0.6-0.3-1-0.8-1.3-1.4c0-0.1,0-0.1,0-0.2c-1-1-2.1-2.1-3.2-3.1
				c-0.1,0-0.1,0-0.2-0.1c-0.6-0.3-1-0.7-1.3-1.2c0-0.1,0-0.1,0-0.2c-3.7-3-7.6-5.8-11.7-8.3c0.1,0,0.2,0,0.2-0.1c0,0,0-0.1,0-0.2
				c0-0.1,0-0.2,0-0.3c0.3-0.3,0.7-0.5,1-0.7c0.1,0,0.1-0.1,0.2-0.1c0.2-0.1,0.3-0.2,0.5-0.3c0,0,0-0.1,0-0.2c0-0.1,0-0.2,0-0.3
				c0.5-0.4,1-0.8,1.5-1.2c0.1,0,0.1-0.1,0.2-0.1c0.8-0.7,1.5-1.3,2.2-2c0,0,0-0.1,0-0.2c0-0.1,0-0.2,0-0.3c0-0.1,0-0.2,0-0.3
				c0.5-0.3,1-0.7,1.3-1.2c0,0,0.1-0.1,0.2-0.1c0.2-0.1,0.3-0.2,0.5-0.3c0,0,0-0.1,0-0.2c0-0.1,0-0.2,0-0.3c0-0.1,0-0.2,0-0.3
				c0.4-0.1,0.6-0.4,0.8-0.7c0,0,0.1-0.1,0.2-0.1c7-7.9,11.7-18.2,14.1-30.7c0.2-1.3,0.4-2.7,0.4-4.2c0-0.1,0-0.2,0-0.3
				c0-0.6,0-1.2,0-1.8c0.1,0,0.2,0,0.3,0c0-0.1,0-0.2,0-0.3c0-0.1,0-0.2,0-0.3c0-0.1,0-0.2,0-0.3c0-1,0-2,0-3c0.1,0,0.2,0,0.3,0
				c0-0.1,0-0.2,0-0.3c0-0.5,0-1,0-1.5c0-0.1,0-0.2,0-0.3c0-1,0-2,0-3c0-0.1,0-0.2,0-0.3c0-0.5,0-1,0-1.5c-0.1,0-0.1,0-0.2,0
				c-0.1-0.8-0.1-1.7-0.1-2.5c0-0.1,0-0.2,0-0.3c-0.8-9.9-2.9-18.4-6.5-25.5c-0.1,0-0.1,0-0.2,0c-0.4-0.3-0.7-0.8-0.8-1.5
				c0-0.1,0-0.1,0-0.2C696.2,38.6,693.4,34.6,690.2,31 M649.2,77c0,0.1,0,0.2,0,0.3c0.3,0.5,0.4,1.3,0.3,2.3c0,0.1,0,0.2,0,0.3
				c0,0.3,0,0.7,0,1c0,0.1,0,0.2,0,0.3c0.3,0.5,0.4,1.3,0.2,2.2c0,0,0,0.1-0.2,0.1c0,0.4,0,0.8,0,1.3c0,0.1,0,0.2,0,0.3
				c0,0.1,0,0.2,0,0.3c0.1,1,0,1.7-0.3,2.2c0,0.1,0,0.2,0,0.3c-0.4,2.7-1.1,5.1-2,7.3c0,0.1,0,0.2,0,0.3c0,0.1,0,0.2,0,0.3
				c0,0.1,0,0.2,0,0.3c-0.1,0.6-0.4,1.1-0.8,1.5c-0.1,0-0.1,0-0.2,0.1c-0.1,0.3-0.3,0.5-0.6,0.7c0,0.1,0,0.2,0,0.3
				c0,0.1,0,0.2,0,0.3c0,0.1,0,0.2,0,0.3c-0.1,0.6-0.5,1-1,1.3c-0.1,0-0.1,0-0.2,0.1c-3.7,4.8-9.3,7.7-16.8,8.7v0.2
				c-0.7,0.1-1.5,0.1-2.3,0.1c-0.1,0-0.1,0-0.3,0c-0.2,0-0.3,0-0.5,0v0.2c-5.5,0.1-11,0.1-16.5,0.1c0,14.9,0,29.8,0,44.7
				c0,1.3,0,2.5,0,3.8c7.3,0,14.5,0.1,21.8,0.1v0.1c5.1,0.5,9.5,1.7,13.3,3.4c0.1,0,0.2,0.1,0.3,0.1c0.7,0.2,1.2,0.4,1.7,0.9
				c0,0,0,0.1,0,0.1c1,0.7,2,1.5,3,2.2c0.1,0,0.1,0.1,0.2,0.1c0.5,0.2,0.9,0.4,1.2,0.8c0,0.1,0,0.1,0,0.2c0.6,0.7,1.2,1.3,1.8,1.9
				c0.1,0,0.1,0.1,0.2,0.1c0.5,0.3,0.9,0.7,1.2,1.3c0,0.1,0,0.1,0,0.2c1.1,1.5,2.1,3,3.1,4.7c0,0,0.1,0.1,0.2,0.1
				c0.5,0.2,0.7,0.6,0.8,1.3c0,0.1,0,0.2,0,0.3c1,2.4,1.7,5,2.3,7.8c0,0.1,0,0.2,0,0.3c0.3,0.5,0.4,1.3,0.3,2.3c0,0.1,0,0.2,0,0.3
				c0,0.4,0,0.8,0,1.3c0,0.1,0,0.2,0,0.3c0.3,0.5,0.4,1.1,0.2,1.9c0,0,0,0.1-0.2,0.1c0,0.4,0,0.8,0,1.3c0,0.1,0,0.2,0,0.3
				c0,0.1,0,0.2,0,0.3c0.1,1,0,1.7-0.3,2.2c0,0.1,0,0.2,0,0.3c-0.5,3.7-1.4,6.9-2.8,9.8c0,0.1,0,0.2,0,0.3c0,0.1,0,0.2,0,0.3
				c0,0.1,0,0.2,0,0.3c-0.2,1-0.6,1.7-1.3,2.3c-0.1,0-0.1,0-0.2,0.1c-0.6,1.3-1.4,2.4-2.3,3.4c0,0.1,0,0.2,0,0.3c0,0.1,0,0.2,0,0.3
				c-0.2,0.4-0.5,0.8-1,1c-0.1,0-0.1,0-0.2,0.1c-0.6,0.7-1.3,1.4-2,1.9c0,0.1,0,0.2,0,0.3c0,0.1,0,0.2,0,0.2
				c-0.3,0.4-0.7,0.6-1.2,0.8c-0.1,0-0.1,0-0.2,0.1c-4.1,3.2-9.3,5.2-15.5,6.2v0.1c-0.7,0.1-1.3,0.1-2,0.1c-0.1,0-0.1,0-0.3,0
				c-0.1,0-0.1,0-0.3,0c-1.2,0.3-2.6,0.4-4.3,0.4c-14.9-0.1-29.8-0.1-44.7-0.1c0-10.8,0-21.7,0-32.5c0-14.9,0-29.8,0-44.7
				c0-14.9,0-29.8,0-44.7c0-14.9,0-29.8,0-44.7c0.1,0,0.2,0,0.3,0c13.4,0,26.8,0,40.2,0c0.1,0,0.2,0,0.3,0c1,0,2,0,3,0.1
				c0,0,0,0.1,0,0.2c0.1,0,0.2,0,0.3,0c0.1,0,0.2,0,0.3,0c0.7,0,1.3,0,2,0.1c0,0,0,0.1,0,0.2c5.5,0.9,10,2.8,13.5,5.7
				c0.1,0,0.1,0,0.2,0c0.5,0.2,0.9,0.4,1.2,0.8c0,0.1,0,0.1,0,0.2c0.5,0.3,0.9,0.7,1.2,1.3c0,0.1,0,0.1,0,0.2
				c0.2,0.5,0.5,0.9,0.8,1.2c0.1,0,0.1,0.1,0.2,0.1c0.5,0.3,0.8,0.7,1,1.2c0,0.1,0,0.2,0,0.3c0.4,0.7,0.7,1.4,1.1,2.2
				c0,0,0.1,0.1,0.2,0.1c0.4,0.4,0.6,0.9,0.8,1.5c0,0.1,0,0.2,0,0.3C648.1,72.3,648.7,74.6,649.2,77z"/>
			<path class="st55" d="M630.7,270.5c-0.1,0-0.1,0-0.3,0c-1.8,0-3.7,0-5.5,0c0,0.1,0,0.2,0,0.3c1.9,0,3.9,0,5.8-0.1V270.5z"/>
			<path class="st56" d="M631.7,270.2c0,0.1,0,0.2,0,0.3c0.9,0,1.9,0,2.8-0.1v-0.1c-0.1,0-0.1,0-0.3,0
				C633.4,270.2,632.6,270.2,631.7,270.2z"/>
			<path class="st57" d="M626.5,4.8c-0.9-0.1-1.8-0.1-2.8-0.1c0,0.1,0,0.2,0,0.2c0.8,0,1.5,0,2.3,0c0.1,0,0.2,0,0.3,0
				c0.1,0,0.2,0,0.3,0C626.5,4.9,626.5,4.9,626.5,4.8 M706.5,78.2c0-0.1,0-0.2,0-0.3c-0.1,0-0.1,0-0.3,0c0,0.5,0,1,0,1.5
				c0,0.1,0,0.2,0,0.3c0,0.1,0,0.2,0,0.3C706.5,79.6,706.6,79,706.5,78.2z"/>
			<path class="st58" d="M623.7,4.7c-3.1,0-6.1,0-9.3,0c-14.9,0-29.8,0-44.7,0c-14.9,0-29.8,0-44.8,0c0,0.1,0,0.2,0,0.2
				c0.1,0,0.2,0,0.3,0c14.9,0,29.9,0,44.8,0c14.9,0,29.9,0,44.7,0c3,0,6,0,9,0C623.7,4.9,623.7,4.8,623.7,4.7z"/>
			<path class="st59" d="M633.5,5.5c0.1,0,0.2,0,0.3,0c0-0.1,0-0.1,0-0.2c-0.8-0.1-1.7-0.1-2.5-0.1C631.8,5.5,632.5,5.6,633.5,5.5
				 M699.3,44.7c0.1,0,0.1,0,0.2,0c0-0.1,0-0.1,0-0.3c-0.2-0.5-0.6-0.9-1-1.3C698.6,43.9,698.9,44.4,699.3,44.7z"/>
			<path class="st60" d="M694.7,246.2c0,0,0-0.1,0-0.2c-0.1,0-0.1,0-0.2,0.1c-0.8,0.6-1.5,1.3-2.3,1.9c0,0.1,0,0.2,0,0.3
				C693.2,247.7,694,247,694.7,246.2z"/>
			<path class="st61" d="M696.7,244c0.7-0.5,1.3-1.1,1.7-1.8c0,0,0-0.1,0-0.2c-0.1,0-0.1,0-0.2,0.1c-0.5,0.6-1,1-1.6,1.4
				c0,0.1,0,0.2,0,0.3C696.7,243.8,696.7,243.9,696.7,244z"/>
			<path class="st62" d="M683.7,128.4c0,0,0-0.1,0-0.2c-0.1,0-0.1,0-0.2,0.1c-0.4,0.2-0.7,0.4-1,0.7c0,0.1,0,0.2,0,0.3
				C683,129.1,683.4,128.8,683.7,128.4z"/>
			<path class="st63" d="M695.4,139c-0.4-0.5-0.8-0.8-1.5-1.1c0.3,0.5,0.7,0.9,1.3,1.2c0.1,0,0.1,0.1,0.2,0.1
				C695.5,139.2,695.5,139.1,695.4,139z"/>
			<path class="st64" d="M691.2,120.5c-0.1,0-0.1,0-0.2,0.1c-0.2,0.3-0.5,0.6-0.8,0.7c0,0.1,0,0.2,0,0.3c0,0.1,0,0.2,0,0.3
				c0.4-0.2,0.8-0.6,1-1C691.2,120.7,691.2,120.6,691.2,120.5z"/>
			<path class="st65" d="M706.5,74.7c-0.1,0-0.1,0-0.3,0c0,1,0,2,0,3c0,0.1,0,0.2,0,0.3c0.1,0,0.2,0,0.3,0c0-0.1,0-0.2,0-0.3
				C706.5,76.7,706.5,75.7,706.5,74.7z"/>
			<path class="st66" d="M706.2,73c0-0.1,0-0.2,0-0.3c0-0.1,0-0.2,0-0.3c0.1-0.9,0-1.5-0.3-2c0,0.8,0,1.7,0.1,2.5
				C706.1,73,706.2,73,706.2,73z"/>
			<path class="st67" d="M632.5,220.7c-0.1,0-0.1,0-0.3,0c-0.6,0-1.2,0-1.8,0c0,0.1,0,0.2,0,0.3c0.7,0,1.3,0,2-0.1V220.7
				 M659.5,185.5c0.1-1,0-1.7-0.3-2.3c0,0.8,0,1.7,0.1,2.5c0,0,0.1,0,0.2,0C659.5,185.7,659.5,185.6,659.5,185.5z"/>
			<path class="st68" d="M645,162.2c0.1,0,0.2,0.1,0.3,0.1c0-0.1,0-0.1,0-0.1c-0.5-0.4-1-0.7-1.7-0.9
				C643.9,161.7,644.4,162,645,162.2 M659.5,191c0-0.1,0-0.2,0-0.3c-0.1,0-0.1,0-0.3,0c0,0.8,0,1.5,0,2.2c0,0.1,0,0.2,0,0.3
				C659.5,192.7,659.6,192,659.5,191z"/>
			<path class="st69" d="M630,157.7v-0.1c-7.2-0.1-14.5-0.1-21.8-0.1c7,0.3,14.1,0.4,21.5,0.3C629.8,157.7,629.9,157.7,630,157.7
				 M624.7,108.9v-0.2c-0.1,0-0.1,0-0.3,0c-5.4,0-10.8,0-16.3,0c0,0.1,0,0.2,0,0.3C613.7,109,619.2,109,624.7,108.9 M581.2,54.7
				c0-0.1,0-0.1,0-0.3c-0.1,0-0.1,0-0.3,0c0,14.9,0,29.8,0,44.7c0,14.9,0,29.8,0,44.7c0,14.9,0,29.8,0,44.7c0,10.8,0,21.7,0,32.5
				c14.9,0,29.8,0.1,44.7,0.1c1.6,0,3-0.1,4.3-0.4c-1.3,0-2.7,0-4,0c-14.9,0-29.8,0-44.7,0c0-10.7,0-21.3,0-32c0-14.9,0-29.8,0-44.7
				c0-14.9,0-29.8,0-44.7C581.2,84.6,581.2,69.7,581.2,54.7 M659.5,189.2c0.1,0,0.2,0,0.2-0.1c0.2-0.8,0.1-1.5-0.2-1.9
				c0,0.6,0,1.2,0,1.8C659.5,189.1,659.5,189.2,659.5,189.2z"/>
			<path class="st70" d="M627.7,108.6v-0.2c-0.1,0-0.1,0-0.3,0c-0.7,0-1.3,0-2,0c0,0.1,0,0.2,0,0.3
				C626.3,108.7,627,108.7,627.7,108.6 M647.2,95.5c0-0.1,0-0.2,0-0.3c-0.1,0-0.1,0-0.2,0c-0.1,0.5-0.3,0.8-0.6,1c0,0.2,0,0.3,0,0.5
				c0,0.1,0,0.2,0,0.3C646.9,96.6,647.1,96.1,647.2,95.5z"/>
			<path class="st71" d="M645.7,98.5c0-0.1,0-0.2,0-0.3c-0.1,0-0.1,0-0.2,0.1c-0.2,0.4-0.5,0.7-0.8,0.9c0,0.1,0,0.2,0,0.3
				c0,0.1,0,0.2,0,0.3C645.2,99.5,645.6,99.1,645.7,98.5z"/>
			<path class="st72" d="M625.2,54.7c0.4,0.3,1,0.4,1.8,0.3c0.1,0,0.2,0,0.3,0c0-0.1,0-0.1,0-0.2C626.6,54.8,625.9,54.7,625.2,54.7z
				"/>
			<path class="st73" d="M645.4,65.7c-0.1-0.6-0.5-1-1-1.2c0.2,0.5,0.5,1,0.8,1.4c0.1,0,0.1,0.1,0.2,0.1
				C645.5,65.9,645.5,65.8,645.4,65.7z"/>
			<path class="st74" d="M642.2,61.7c-0.1,0-0.1,0-0.3,0c0.4,0.5,0.9,1,1.3,1.4c0.1,0,0.1,0,0.2,0c0-0.1,0-0.1,0-0.2
				C643.2,62.5,642.8,62,642.2,61.7z"/>
			<path class="st75" d="M642.2,61.7c0-0.1,0-0.1,0-0.2c-0.3-0.4-0.7-0.6-1.2-0.8c0.2,0.3,0.5,0.6,0.8,1c0.1,0,0.1,0,0.2,0
				C642.1,61.7,642.2,61.7,642.2,61.7z"/>
			<path class="st76" d="M581.2,54.5c0,0.1,0,0.2,0,0.3c13.4,0,26.8,0,40.2,0c0.1,0,0.2,0,0.3,0c0-0.1,0-0.1,0-0.3
				c-0.1,0-0.1,0-0.3,0C608.1,54.5,594.6,54.5,581.2,54.5z"/>
			<path class="st77" d="M648.2,214.5c0.5-0.2,0.9-0.4,1.2-0.8c0,0,0-0.1,0-0.2c-0.1,0-0.1,0-0.2,0.1c-0.4,0.2-0.7,0.4-1,0.7
				C648.2,214.3,648.2,214.4,648.2,214.5z"/>
			<path class="st78" d="M652.7,210c-0.1,0-0.1,0-0.2,0.1c-0.2,0.3-0.5,0.6-0.8,0.7c0,0.1,0,0.2,0,0.3c0,0.1,0,0.2,0,0.3
				c0.4-0.2,0.8-0.6,1-1C652.7,210.2,652.7,210.1,652.7,210z"/>
			<path class="st79" d="M656.5,204c0-0.1,0-0.2,0-0.3c-0.1,0-0.1,0-0.2,0.1c-0.3,0.8-0.6,1.4-1.1,1.9c0,0.1,0,0.2,0,0.3
				c0,0.1,0,0.2,0,0.3C655.9,205.7,656.3,205,656.5,204z"/>
			<path class="st80" d="M657,175c0-0.6-0.3-1.1-0.8-1.3c0.2,0.5,0.4,1,0.6,1.4c0,0,0.1,0.1,0.2,0.1C657,175.2,657,175.1,657,175z"
				/>
			<path class="st81" d="M651.7,167.5c0.2,0.6,0.6,1.1,1,1.4c0.1,0,0.1,0.1,0.2,0.1c0-0.1,0-0.1,0-0.2
				C652.7,168.2,652.3,167.8,651.7,167.5z"/>
			<path class="st82" d="M649.7,165.5c0-0.1,0-0.1,0-0.2c-0.3-0.4-0.7-0.6-1.2-0.8c0.2,0.4,0.6,0.8,1,0.9
				C649.6,165.5,649.7,165.5,649.7,165.5z"/>
			<path class="st83" d="M649.5,85c0-0.1,0-0.2,0-0.3c-0.1,0-0.1,0-0.3,0c0,0.8,0,1.5,0,2.2c0,0.1,0,0.2,0,0.3
				C649.5,86.7,649.6,86,649.5,85z"/>
			<path class="st84" d="M649.5,83.2c0.1,0,0.2,0,0.2-0.1c0.2-0.9,0.1-1.7-0.2-2.2c0,0.7,0,1.3,0,2
				C649.5,83.1,649.5,83.2,649.5,83.2z"/>
			<path class="st85" d="M649.5,79.7c0-0.1,0-0.2,0-0.3c0.1-1,0-1.7-0.3-2.3c0,0.8,0,1.7,0.1,2.5C649.4,79.7,649.4,79.7,649.5,79.7z
				"/>
			<path class="st86" d="M802.5,5c-4.4,0-8.8,0-13.3,0c-14.9,0-29.8,0-44.7,0c-0.1,0-0.1,0-0.3,0c-0.3,0-0.7,0-1,0
				c0,14.9,0,29.8,0,44.7c0,14.9,0,29.8,0,44.7c0,14.9,0,29.8,0,44.7c0,14.9,0,29.8,0,44.7c0,14.9,0,29.8,0,44.7c0,14,0,28,0,42
				c14.9,0,29.8,0,44.7,0c4.8,0,9.7,0,14.5,0c0-14,0-28,0-42c0-14.9,0-29.8,0-44.7c0-14.9,0-29.8,0-44.7c0-14.9,0-29.8,0-44.7
				c0-14.9,0-29.8,0-44.7C802.5,34.8,802.5,19.9,802.5,5z"/>
		</g>
	</g>
</g>
</svg>
