<svg width="16" height="16" viewBox="0 0 228 362" fill="none" xmlns="http://www.w3.org/2000/svg">
<path d="M217.383 191.162C217.383 211.475 212.939 229.688 204.053 245.801C195.166 261.816 183.936 274.121 170.361 282.715C159.033 290.039 146.68 294.775 133.301 296.924C120.02 298.975 105.859 300 90.8203 300H22.5586V81.8848H90.2344C105.566 81.8848 119.922 82.8613 133.301 84.8145C146.68 86.7676 159.229 91.5039 170.947 99.0234C185.303 108.203 196.631 120.605 204.932 136.23C213.232 151.758 217.383 170.068 217.383 191.162ZM161.133 190.723C161.133 176.367 158.643 164.111 153.662 153.955C148.779 143.701 141.211 135.693 130.957 129.932C123.535 125.83 115.723 123.584 107.52 123.193C99.4141 122.803 89.6973 122.607 78.3691 122.607H77.3438V259.131H78.3691C90.6738 259.131 101.025 258.936 109.424 258.545C117.92 258.057 125.977 255.42 133.594 250.635C142.578 244.971 149.414 237.158 154.102 227.197C158.789 217.236 161.133 205.078 161.133 190.723Z" fill="#AB110C"/>
<circle cx="176" cy="129" r="37" fill="white"/>
<circle cx="170" cy="134" r="26" fill="#4CAF50"/>
</svg>
